<svg xmlns="http://www.w3.org/2000/svg" width="200" height="200" viewBox="0 0 200 200">
  <g id="グループ_69" data-name="グループ 69" transform="translate(-88 -174)">
    <rect id="長方形_11" data-name="長方形 11" width="200" height="200" transform="translate(88 174)" fill="#e63e37"/>
    <rect id="長方形_13" data-name="長方形 13" width="200" height="95" transform="translate(88 279)" fill="#5abc7c"/>
    <rect id="長方形_11-2" data-name="長方形 11" width="39" height="200" transform="translate(249 174)" fill="#378ee6"/>
    <rect id="長方形_14" data-name="長方形 14" width="39" height="95" transform="translate(88 279)" fill="#378ee6"/>
    <rect id="長方形_15" data-name="長方形 15" width="39" height="28" transform="translate(249 346)" fill="#e63e37"/>
    <rect id="長方形_16" data-name="長方形 16" width="39" height="48" transform="translate(249 174)" fill="#5abc7c"/>
    <g id="グループ_66" data-name="グループ 66" transform="translate(407.722 339.765)">
      <path id="パス_19" data-name="パス 19" d="M62.278,0c34.286,0,55.713,22.314,62.08,53.767S136.246,113.9,62.278,113.9-6.17,85.22.2,53.767,27.992,0,62.278,0Z" transform="translate(-282.5 -123.666)" fill="#fff"/>
      <path id="前面オブジェクトで型抜き_1" data-name="" d="M47.156,54.871a64.811,64.811,0,0,0-6.885-14.383c-2.782-4.147-5.43-6.338-7.657-6.338-2.159,0-4.726,2.072-7.422,5.993A62.844,62.844,0,0,0,18.417,53.9a73.7,73.7,0,0,0-5.393-25.058A68.3,68.3,0,0,0,.122,8.393C9.464,2.823,20.4,0,32.614,0,44.941,0,55.955,2.873,65.35,8.54a67.191,67.191,0,0,0-7.345,9.7,70.437,70.437,0,0,0-5.631,11.123A73.835,73.835,0,0,0,47.157,54.87Z" transform="translate(-252.836 -123.666)" fill="#181b1a"/>
      <path id="パス_20" data-name="パス 20" d="M16.906,0C25.455,0,38.28,32.376,34,43.169c-2.116,5.342-9.469-.054-17.1,0-7.331.054-14.941,5.45-17.1,0C-4.469,32.376,8.356,0,16.906,0Z" transform="translate(-237.128 -89.517)" fill="#ec081a"/>
      <path id="パス_22" data-name="パス 22" d="M14.622,0c6.965,0,17.413,8.093,13.931,10.791-1.724,1.335-7.715-.014-13.931,0C8.65,10.8,2.45,12.154.692,10.791-2.791,8.093,7.657,0,14.622,0Z" transform="translate(-187.952 -56.649) rotate(-103)" fill="#1f0000"/>
      <path id="パス_23" data-name="パス 23" d="M14.622,11.4c6.965,0,17.413-8.093,13.931-10.791-1.724-1.335-7.715.014-13.931,0C8.65.6,2.45-.754.692.609-2.791,3.306,7.657,11.4,14.622,11.4Z" transform="translate(-263.6 -59.213) rotate(-77)" fill="#1f0000"/>
    </g>
  </g>
</svg>
