<svg xmlns="http://www.w3.org/2000/svg" xmlns:xlink="http://www.w3.org/1999/xlink" width="1200" height="675" viewBox="0 0 1200 675">
  <defs>
    <clipPath id="clip-path">
      <rect width="1200" height="675" fill="none"/>
    </clipPath>
    <clipPath id="clip-bg01">
      <rect width="1200" height="675"/>
    </clipPath>
  </defs>
  <g id="bg01" clip-path="url(#clip-bg01)">
    <rect width="1200" height="675" fill="#fff3a6"/>
    <g id="リピートグリッド_6" data-name="リピートグリッド 6" opacity="0.432" clip-path="url(#clip-path)" style="isolation: isolate">
      <g transform="translate(2.475 20.589)">
        <line id="線_3" data-name="線 3" x2="100" transform="translate(0 45.114) rotate(-45)" fill="none" stroke="#fff" stroke-width="7"/>
      </g>
      <g transform="translate(69.475 20.589)">
        <line id="線_3-2" data-name="線 3" x2="100" transform="translate(0 45.114) rotate(-45)" fill="none" stroke="#fff" stroke-width="7"/>
      </g>
      <g transform="translate(136.475 20.589)">
        <line id="線_3-3" data-name="線 3" x2="100" transform="translate(0 45.114) rotate(-45)" fill="none" stroke="#fff" stroke-width="7"/>
      </g>
      <g transform="translate(203.475 20.589)">
        <line id="線_3-4" data-name="線 3" x2="100" transform="translate(0 45.114) rotate(-45)" fill="none" stroke="#fff" stroke-width="7"/>
      </g>
      <g transform="translate(270.475 20.589)">
        <line id="線_3-5" data-name="線 3" x2="100" transform="translate(0 45.114) rotate(-45)" fill="none" stroke="#fff" stroke-width="7"/>
      </g>
      <g transform="translate(337.475 20.589)">
        <line id="線_3-6" data-name="線 3" x2="100" transform="translate(0 45.114) rotate(-45)" fill="none" stroke="#fff" stroke-width="7"/>
      </g>
      <g transform="translate(404.475 20.589)">
        <line id="線_3-7" data-name="線 3" x2="100" transform="translate(0 45.114) rotate(-45)" fill="none" stroke="#fff" stroke-width="7"/>
      </g>
      <g transform="translate(471.475 20.589)">
        <line id="線_3-8" data-name="線 3" x2="100" transform="translate(0 45.114) rotate(-45)" fill="none" stroke="#fff" stroke-width="7"/>
      </g>
      <g transform="translate(538.475 20.589)">
        <line id="線_3-9" data-name="線 3" x2="100" transform="translate(0 45.114) rotate(-45)" fill="none" stroke="#fff" stroke-width="7"/>
      </g>
      <g transform="translate(605.475 20.589)">
        <line id="線_3-10" data-name="線 3" x2="100" transform="translate(0 45.114) rotate(-45)" fill="none" stroke="#fff" stroke-width="7"/>
      </g>
      <g transform="translate(672.475 20.589)">
        <line id="線_3-11" data-name="線 3" x2="100" transform="translate(0 45.114) rotate(-45)" fill="none" stroke="#fff" stroke-width="7"/>
      </g>
      <g transform="translate(739.475 20.589)">
        <line id="線_3-12" data-name="線 3" x2="100" transform="translate(0 45.114) rotate(-45)" fill="none" stroke="#fff" stroke-width="7"/>
      </g>
      <g transform="translate(806.475 20.589)">
        <line id="線_3-13" data-name="線 3" x2="100" transform="translate(0 45.114) rotate(-45)" fill="none" stroke="#fff" stroke-width="7"/>
      </g>
      <g transform="translate(873.475 20.589)">
        <line id="線_3-14" data-name="線 3" x2="100" transform="translate(0 45.114) rotate(-45)" fill="none" stroke="#fff" stroke-width="7"/>
      </g>
      <g transform="translate(940.475 20.589)">
        <line id="線_3-15" data-name="線 3" x2="100" transform="translate(0 45.114) rotate(-45)" fill="none" stroke="#fff" stroke-width="7"/>
      </g>
      <g transform="translate(1007.475 20.589)">
        <line id="線_3-16" data-name="線 3" x2="100" transform="translate(0 45.114) rotate(-45)" fill="none" stroke="#fff" stroke-width="7"/>
      </g>
      <g transform="translate(1074.475 20.589)">
        <line id="線_3-17" data-name="線 3" x2="100" transform="translate(0 45.114) rotate(-45)" fill="none" stroke="#fff" stroke-width="7"/>
      </g>
      <g transform="translate(1141.475 20.589)">
        <line id="線_3-18" data-name="線 3" x2="100" transform="translate(0 45.114) rotate(-45)" fill="none" stroke="#fff" stroke-width="7"/>
      </g>
      <g transform="translate(2.475 87.589)">
        <line id="線_3-19" data-name="線 3" x2="100" transform="translate(0 45.114) rotate(-45)" fill="none" stroke="#fff" stroke-width="7"/>
      </g>
      <g transform="translate(69.475 87.589)">
        <line id="線_3-20" data-name="線 3" x2="100" transform="translate(0 45.114) rotate(-45)" fill="none" stroke="#fff" stroke-width="7"/>
      </g>
      <g transform="translate(136.475 87.589)">
        <line id="線_3-21" data-name="線 3" x2="100" transform="translate(0 45.114) rotate(-45)" fill="none" stroke="#fff" stroke-width="7"/>
      </g>
      <g transform="translate(203.475 87.589)">
        <line id="線_3-22" data-name="線 3" x2="100" transform="translate(0 45.114) rotate(-45)" fill="none" stroke="#fff" stroke-width="7"/>
      </g>
      <g transform="translate(270.475 87.589)">
        <line id="線_3-23" data-name="線 3" x2="100" transform="translate(0 45.114) rotate(-45)" fill="none" stroke="#fff" stroke-width="7"/>
      </g>
      <g transform="translate(337.475 87.589)">
        <line id="線_3-24" data-name="線 3" x2="100" transform="translate(0 45.114) rotate(-45)" fill="none" stroke="#fff" stroke-width="7"/>
      </g>
      <g transform="translate(404.475 87.589)">
        <line id="線_3-25" data-name="線 3" x2="100" transform="translate(0 45.114) rotate(-45)" fill="none" stroke="#fff" stroke-width="7"/>
      </g>
      <g transform="translate(471.475 87.589)">
        <line id="線_3-26" data-name="線 3" x2="100" transform="translate(0 45.114) rotate(-45)" fill="none" stroke="#fff" stroke-width="7"/>
      </g>
      <g transform="translate(538.475 87.589)">
        <line id="線_3-27" data-name="線 3" x2="100" transform="translate(0 45.114) rotate(-45)" fill="none" stroke="#fff" stroke-width="7"/>
      </g>
      <g transform="translate(605.475 87.589)">
        <line id="線_3-28" data-name="線 3" x2="100" transform="translate(0 45.114) rotate(-45)" fill="none" stroke="#fff" stroke-width="7"/>
      </g>
      <g transform="translate(672.475 87.589)">
        <line id="線_3-29" data-name="線 3" x2="100" transform="translate(0 45.114) rotate(-45)" fill="none" stroke="#fff" stroke-width="7"/>
      </g>
      <g transform="translate(739.475 87.589)">
        <line id="線_3-30" data-name="線 3" x2="100" transform="translate(0 45.114) rotate(-45)" fill="none" stroke="#fff" stroke-width="7"/>
      </g>
      <g transform="translate(806.475 87.589)">
        <line id="線_3-31" data-name="線 3" x2="100" transform="translate(0 45.114) rotate(-45)" fill="none" stroke="#fff" stroke-width="7"/>
      </g>
      <g transform="translate(873.475 87.589)">
        <line id="線_3-32" data-name="線 3" x2="100" transform="translate(0 45.114) rotate(-45)" fill="none" stroke="#fff" stroke-width="7"/>
      </g>
      <g transform="translate(940.475 87.589)">
        <line id="線_3-33" data-name="線 3" x2="100" transform="translate(0 45.114) rotate(-45)" fill="none" stroke="#fff" stroke-width="7"/>
      </g>
      <g transform="translate(1007.475 87.589)">
        <line id="線_3-34" data-name="線 3" x2="100" transform="translate(0 45.114) rotate(-45)" fill="none" stroke="#fff" stroke-width="7"/>
      </g>
      <g transform="translate(1074.475 87.589)">
        <line id="線_3-35" data-name="線 3" x2="100" transform="translate(0 45.114) rotate(-45)" fill="none" stroke="#fff" stroke-width="7"/>
      </g>
      <g transform="translate(1141.475 87.589)">
        <line id="線_3-36" data-name="線 3" x2="100" transform="translate(0 45.114) rotate(-45)" fill="none" stroke="#fff" stroke-width="7"/>
      </g>
      <g transform="translate(2.475 154.589)">
        <line id="線_3-37" data-name="線 3" x2="100" transform="translate(0 45.114) rotate(-45)" fill="none" stroke="#fff" stroke-width="7"/>
      </g>
      <g transform="translate(69.475 154.589)">
        <line id="線_3-38" data-name="線 3" x2="100" transform="translate(0 45.114) rotate(-45)" fill="none" stroke="#fff" stroke-width="7"/>
      </g>
      <g transform="translate(136.475 154.589)">
        <line id="線_3-39" data-name="線 3" x2="100" transform="translate(0 45.114) rotate(-45)" fill="none" stroke="#fff" stroke-width="7"/>
      </g>
      <g transform="translate(203.475 154.589)">
        <line id="線_3-40" data-name="線 3" x2="100" transform="translate(0 45.114) rotate(-45)" fill="none" stroke="#fff" stroke-width="7"/>
      </g>
      <g transform="translate(270.475 154.589)">
        <line id="線_3-41" data-name="線 3" x2="100" transform="translate(0 45.114) rotate(-45)" fill="none" stroke="#fff" stroke-width="7"/>
      </g>
      <g transform="translate(337.475 154.589)">
        <line id="線_3-42" data-name="線 3" x2="100" transform="translate(0 45.114) rotate(-45)" fill="none" stroke="#fff" stroke-width="7"/>
      </g>
      <g transform="translate(404.475 154.589)">
        <line id="線_3-43" data-name="線 3" x2="100" transform="translate(0 45.114) rotate(-45)" fill="none" stroke="#fff" stroke-width="7"/>
      </g>
      <g transform="translate(471.475 154.589)">
        <line id="線_3-44" data-name="線 3" x2="100" transform="translate(0 45.114) rotate(-45)" fill="none" stroke="#fff" stroke-width="7"/>
      </g>
      <g transform="translate(538.475 154.589)">
        <line id="線_3-45" data-name="線 3" x2="100" transform="translate(0 45.114) rotate(-45)" fill="none" stroke="#fff" stroke-width="7"/>
      </g>
      <g transform="translate(605.475 154.589)">
        <line id="線_3-46" data-name="線 3" x2="100" transform="translate(0 45.114) rotate(-45)" fill="none" stroke="#fff" stroke-width="7"/>
      </g>
      <g transform="translate(672.475 154.589)">
        <line id="線_3-47" data-name="線 3" x2="100" transform="translate(0 45.114) rotate(-45)" fill="none" stroke="#fff" stroke-width="7"/>
      </g>
      <g transform="translate(739.475 154.589)">
        <line id="線_3-48" data-name="線 3" x2="100" transform="translate(0 45.114) rotate(-45)" fill="none" stroke="#fff" stroke-width="7"/>
      </g>
      <g transform="translate(806.475 154.589)">
        <line id="線_3-49" data-name="線 3" x2="100" transform="translate(0 45.114) rotate(-45)" fill="none" stroke="#fff" stroke-width="7"/>
      </g>
      <g transform="translate(873.475 154.589)">
        <line id="線_3-50" data-name="線 3" x2="100" transform="translate(0 45.114) rotate(-45)" fill="none" stroke="#fff" stroke-width="7"/>
      </g>
      <g transform="translate(940.475 154.589)">
        <line id="線_3-51" data-name="線 3" x2="100" transform="translate(0 45.114) rotate(-45)" fill="none" stroke="#fff" stroke-width="7"/>
      </g>
      <g transform="translate(1007.475 154.589)">
        <line id="線_3-52" data-name="線 3" x2="100" transform="translate(0 45.114) rotate(-45)" fill="none" stroke="#fff" stroke-width="7"/>
      </g>
      <g transform="translate(1074.475 154.589)">
        <line id="線_3-53" data-name="線 3" x2="100" transform="translate(0 45.114) rotate(-45)" fill="none" stroke="#fff" stroke-width="7"/>
      </g>
      <g transform="translate(1141.475 154.589)">
        <line id="線_3-54" data-name="線 3" x2="100" transform="translate(0 45.114) rotate(-45)" fill="none" stroke="#fff" stroke-width="7"/>
      </g>
      <g transform="translate(2.475 221.589)">
        <line id="線_3-55" data-name="線 3" x2="100" transform="translate(0 45.114) rotate(-45)" fill="none" stroke="#fff" stroke-width="7"/>
      </g>
      <g transform="translate(69.475 221.589)">
        <line id="線_3-56" data-name="線 3" x2="100" transform="translate(0 45.114) rotate(-45)" fill="none" stroke="#fff" stroke-width="7"/>
      </g>
      <g transform="translate(136.475 221.589)">
        <line id="線_3-57" data-name="線 3" x2="100" transform="translate(0 45.114) rotate(-45)" fill="none" stroke="#fff" stroke-width="7"/>
      </g>
      <g transform="translate(203.475 221.589)">
        <line id="線_3-58" data-name="線 3" x2="100" transform="translate(0 45.114) rotate(-45)" fill="none" stroke="#fff" stroke-width="7"/>
      </g>
      <g transform="translate(270.475 221.589)">
        <line id="線_3-59" data-name="線 3" x2="100" transform="translate(0 45.114) rotate(-45)" fill="none" stroke="#fff" stroke-width="7"/>
      </g>
      <g transform="translate(337.475 221.589)">
        <line id="線_3-60" data-name="線 3" x2="100" transform="translate(0 45.114) rotate(-45)" fill="none" stroke="#fff" stroke-width="7"/>
      </g>
      <g transform="translate(404.475 221.589)">
        <line id="線_3-61" data-name="線 3" x2="100" transform="translate(0 45.114) rotate(-45)" fill="none" stroke="#fff" stroke-width="7"/>
      </g>
      <g transform="translate(471.475 221.589)">
        <line id="線_3-62" data-name="線 3" x2="100" transform="translate(0 45.114) rotate(-45)" fill="none" stroke="#fff" stroke-width="7"/>
      </g>
      <g transform="translate(538.475 221.589)">
        <line id="線_3-63" data-name="線 3" x2="100" transform="translate(0 45.114) rotate(-45)" fill="none" stroke="#fff" stroke-width="7"/>
      </g>
      <g transform="translate(605.475 221.589)">
        <line id="線_3-64" data-name="線 3" x2="100" transform="translate(0 45.114) rotate(-45)" fill="none" stroke="#fff" stroke-width="7"/>
      </g>
      <g transform="translate(672.475 221.589)">
        <line id="線_3-65" data-name="線 3" x2="100" transform="translate(0 45.114) rotate(-45)" fill="none" stroke="#fff" stroke-width="7"/>
      </g>
      <g transform="translate(739.475 221.589)">
        <line id="線_3-66" data-name="線 3" x2="100" transform="translate(0 45.114) rotate(-45)" fill="none" stroke="#fff" stroke-width="7"/>
      </g>
      <g transform="translate(806.475 221.589)">
        <line id="線_3-67" data-name="線 3" x2="100" transform="translate(0 45.114) rotate(-45)" fill="none" stroke="#fff" stroke-width="7"/>
      </g>
      <g transform="translate(873.475 221.589)">
        <line id="線_3-68" data-name="線 3" x2="100" transform="translate(0 45.114) rotate(-45)" fill="none" stroke="#fff" stroke-width="7"/>
      </g>
      <g transform="translate(940.475 221.589)">
        <line id="線_3-69" data-name="線 3" x2="100" transform="translate(0 45.114) rotate(-45)" fill="none" stroke="#fff" stroke-width="7"/>
      </g>
      <g transform="translate(1007.475 221.589)">
        <line id="線_3-70" data-name="線 3" x2="100" transform="translate(0 45.114) rotate(-45)" fill="none" stroke="#fff" stroke-width="7"/>
      </g>
      <g transform="translate(1074.475 221.589)">
        <line id="線_3-71" data-name="線 3" x2="100" transform="translate(0 45.114) rotate(-45)" fill="none" stroke="#fff" stroke-width="7"/>
      </g>
      <g transform="translate(1141.475 221.589)">
        <line id="線_3-72" data-name="線 3" x2="100" transform="translate(0 45.114) rotate(-45)" fill="none" stroke="#fff" stroke-width="7"/>
      </g>
      <g transform="translate(2.475 288.589)">
        <line id="線_3-73" data-name="線 3" x2="100" transform="translate(0 45.114) rotate(-45)" fill="none" stroke="#fff" stroke-width="7"/>
      </g>
      <g transform="translate(69.475 288.589)">
        <line id="線_3-74" data-name="線 3" x2="100" transform="translate(0 45.114) rotate(-45)" fill="none" stroke="#fff" stroke-width="7"/>
      </g>
      <g transform="translate(136.475 288.589)">
        <line id="線_3-75" data-name="線 3" x2="100" transform="translate(0 45.114) rotate(-45)" fill="none" stroke="#fff" stroke-width="7"/>
      </g>
      <g transform="translate(203.475 288.589)">
        <line id="線_3-76" data-name="線 3" x2="100" transform="translate(0 45.114) rotate(-45)" fill="none" stroke="#fff" stroke-width="7"/>
      </g>
      <g transform="translate(270.475 288.589)">
        <line id="線_3-77" data-name="線 3" x2="100" transform="translate(0 45.114) rotate(-45)" fill="none" stroke="#fff" stroke-width="7"/>
      </g>
      <g transform="translate(337.475 288.589)">
        <line id="線_3-78" data-name="線 3" x2="100" transform="translate(0 45.114) rotate(-45)" fill="none" stroke="#fff" stroke-width="7"/>
      </g>
      <g transform="translate(404.475 288.589)">
        <line id="線_3-79" data-name="線 3" x2="100" transform="translate(0 45.114) rotate(-45)" fill="none" stroke="#fff" stroke-width="7"/>
      </g>
      <g transform="translate(471.475 288.589)">
        <line id="線_3-80" data-name="線 3" x2="100" transform="translate(0 45.114) rotate(-45)" fill="none" stroke="#fff" stroke-width="7"/>
      </g>
      <g transform="translate(538.475 288.589)">
        <line id="線_3-81" data-name="線 3" x2="100" transform="translate(0 45.114) rotate(-45)" fill="none" stroke="#fff" stroke-width="7"/>
      </g>
      <g transform="translate(605.475 288.589)">
        <line id="線_3-82" data-name="線 3" x2="100" transform="translate(0 45.114) rotate(-45)" fill="none" stroke="#fff" stroke-width="7"/>
      </g>
      <g transform="translate(672.475 288.589)">
        <line id="線_3-83" data-name="線 3" x2="100" transform="translate(0 45.114) rotate(-45)" fill="none" stroke="#fff" stroke-width="7"/>
      </g>
      <g transform="translate(739.475 288.589)">
        <line id="線_3-84" data-name="線 3" x2="100" transform="translate(0 45.114) rotate(-45)" fill="none" stroke="#fff" stroke-width="7"/>
      </g>
      <g transform="translate(806.475 288.589)">
        <line id="線_3-85" data-name="線 3" x2="100" transform="translate(0 45.114) rotate(-45)" fill="none" stroke="#fff" stroke-width="7"/>
      </g>
      <g transform="translate(873.475 288.589)">
        <line id="線_3-86" data-name="線 3" x2="100" transform="translate(0 45.114) rotate(-45)" fill="none" stroke="#fff" stroke-width="7"/>
      </g>
      <g transform="translate(940.475 288.589)">
        <line id="線_3-87" data-name="線 3" x2="100" transform="translate(0 45.114) rotate(-45)" fill="none" stroke="#fff" stroke-width="7"/>
      </g>
      <g transform="translate(1007.475 288.589)">
        <line id="線_3-88" data-name="線 3" x2="100" transform="translate(0 45.114) rotate(-45)" fill="none" stroke="#fff" stroke-width="7"/>
      </g>
      <g transform="translate(1074.475 288.589)">
        <line id="線_3-89" data-name="線 3" x2="100" transform="translate(0 45.114) rotate(-45)" fill="none" stroke="#fff" stroke-width="7"/>
      </g>
      <g transform="translate(1141.475 288.589)">
        <line id="線_3-90" data-name="線 3" x2="100" transform="translate(0 45.114) rotate(-45)" fill="none" stroke="#fff" stroke-width="7"/>
      </g>
      <g transform="translate(2.475 355.589)">
        <line id="線_3-91" data-name="線 3" x2="100" transform="translate(0 45.114) rotate(-45)" fill="none" stroke="#fff" stroke-width="7"/>
      </g>
      <g transform="translate(69.475 355.589)">
        <line id="線_3-92" data-name="線 3" x2="100" transform="translate(0 45.114) rotate(-45)" fill="none" stroke="#fff" stroke-width="7"/>
      </g>
      <g transform="translate(136.475 355.589)">
        <line id="線_3-93" data-name="線 3" x2="100" transform="translate(0 45.114) rotate(-45)" fill="none" stroke="#fff" stroke-width="7"/>
      </g>
      <g transform="translate(203.475 355.589)">
        <line id="線_3-94" data-name="線 3" x2="100" transform="translate(0 45.114) rotate(-45)" fill="none" stroke="#fff" stroke-width="7"/>
      </g>
      <g transform="translate(270.475 355.589)">
        <line id="線_3-95" data-name="線 3" x2="100" transform="translate(0 45.114) rotate(-45)" fill="none" stroke="#fff" stroke-width="7"/>
      </g>
      <g transform="translate(337.475 355.589)">
        <line id="線_3-96" data-name="線 3" x2="100" transform="translate(0 45.114) rotate(-45)" fill="none" stroke="#fff" stroke-width="7"/>
      </g>
      <g transform="translate(404.475 355.589)">
        <line id="線_3-97" data-name="線 3" x2="100" transform="translate(0 45.114) rotate(-45)" fill="none" stroke="#fff" stroke-width="7"/>
      </g>
      <g transform="translate(471.475 355.589)">
        <line id="線_3-98" data-name="線 3" x2="100" transform="translate(0 45.114) rotate(-45)" fill="none" stroke="#fff" stroke-width="7"/>
      </g>
      <g transform="translate(538.475 355.589)">
        <line id="線_3-99" data-name="線 3" x2="100" transform="translate(0 45.114) rotate(-45)" fill="none" stroke="#fff" stroke-width="7"/>
      </g>
      <g transform="translate(605.475 355.589)">
        <line id="線_3-100" data-name="線 3" x2="100" transform="translate(0 45.114) rotate(-45)" fill="none" stroke="#fff" stroke-width="7"/>
      </g>
      <g transform="translate(672.475 355.589)">
        <line id="線_3-101" data-name="線 3" x2="100" transform="translate(0 45.114) rotate(-45)" fill="none" stroke="#fff" stroke-width="7"/>
      </g>
      <g transform="translate(739.475 355.589)">
        <line id="線_3-102" data-name="線 3" x2="100" transform="translate(0 45.114) rotate(-45)" fill="none" stroke="#fff" stroke-width="7"/>
      </g>
      <g transform="translate(806.475 355.589)">
        <line id="線_3-103" data-name="線 3" x2="100" transform="translate(0 45.114) rotate(-45)" fill="none" stroke="#fff" stroke-width="7"/>
      </g>
      <g transform="translate(873.475 355.589)">
        <line id="線_3-104" data-name="線 3" x2="100" transform="translate(0 45.114) rotate(-45)" fill="none" stroke="#fff" stroke-width="7"/>
      </g>
      <g transform="translate(940.475 355.589)">
        <line id="線_3-105" data-name="線 3" x2="100" transform="translate(0 45.114) rotate(-45)" fill="none" stroke="#fff" stroke-width="7"/>
      </g>
      <g transform="translate(1007.475 355.589)">
        <line id="線_3-106" data-name="線 3" x2="100" transform="translate(0 45.114) rotate(-45)" fill="none" stroke="#fff" stroke-width="7"/>
      </g>
      <g transform="translate(1074.475 355.589)">
        <line id="線_3-107" data-name="線 3" x2="100" transform="translate(0 45.114) rotate(-45)" fill="none" stroke="#fff" stroke-width="7"/>
      </g>
      <g transform="translate(1141.475 355.589)">
        <line id="線_3-108" data-name="線 3" x2="100" transform="translate(0 45.114) rotate(-45)" fill="none" stroke="#fff" stroke-width="7"/>
      </g>
      <g transform="translate(2.475 422.589)">
        <line id="線_3-109" data-name="線 3" x2="100" transform="translate(0 45.114) rotate(-45)" fill="none" stroke="#fff" stroke-width="7"/>
      </g>
      <g transform="translate(69.475 422.589)">
        <line id="線_3-110" data-name="線 3" x2="100" transform="translate(0 45.114) rotate(-45)" fill="none" stroke="#fff" stroke-width="7"/>
      </g>
      <g transform="translate(136.475 422.589)">
        <line id="線_3-111" data-name="線 3" x2="100" transform="translate(0 45.114) rotate(-45)" fill="none" stroke="#fff" stroke-width="7"/>
      </g>
      <g transform="translate(203.475 422.589)">
        <line id="線_3-112" data-name="線 3" x2="100" transform="translate(0 45.114) rotate(-45)" fill="none" stroke="#fff" stroke-width="7"/>
      </g>
      <g transform="translate(270.475 422.589)">
        <line id="線_3-113" data-name="線 3" x2="100" transform="translate(0 45.114) rotate(-45)" fill="none" stroke="#fff" stroke-width="7"/>
      </g>
      <g transform="translate(337.475 422.589)">
        <line id="線_3-114" data-name="線 3" x2="100" transform="translate(0 45.114) rotate(-45)" fill="none" stroke="#fff" stroke-width="7"/>
      </g>
      <g transform="translate(404.475 422.589)">
        <line id="線_3-115" data-name="線 3" x2="100" transform="translate(0 45.114) rotate(-45)" fill="none" stroke="#fff" stroke-width="7"/>
      </g>
      <g transform="translate(471.475 422.589)">
        <line id="線_3-116" data-name="線 3" x2="100" transform="translate(0 45.114) rotate(-45)" fill="none" stroke="#fff" stroke-width="7"/>
      </g>
      <g transform="translate(538.475 422.589)">
        <line id="線_3-117" data-name="線 3" x2="100" transform="translate(0 45.114) rotate(-45)" fill="none" stroke="#fff" stroke-width="7"/>
      </g>
      <g transform="translate(605.475 422.589)">
        <line id="線_3-118" data-name="線 3" x2="100" transform="translate(0 45.114) rotate(-45)" fill="none" stroke="#fff" stroke-width="7"/>
      </g>
      <g transform="translate(672.475 422.589)">
        <line id="線_3-119" data-name="線 3" x2="100" transform="translate(0 45.114) rotate(-45)" fill="none" stroke="#fff" stroke-width="7"/>
      </g>
      <g transform="translate(739.475 422.589)">
        <line id="線_3-120" data-name="線 3" x2="100" transform="translate(0 45.114) rotate(-45)" fill="none" stroke="#fff" stroke-width="7"/>
      </g>
      <g transform="translate(806.475 422.589)">
        <line id="線_3-121" data-name="線 3" x2="100" transform="translate(0 45.114) rotate(-45)" fill="none" stroke="#fff" stroke-width="7"/>
      </g>
      <g transform="translate(873.475 422.589)">
        <line id="線_3-122" data-name="線 3" x2="100" transform="translate(0 45.114) rotate(-45)" fill="none" stroke="#fff" stroke-width="7"/>
      </g>
      <g transform="translate(940.475 422.589)">
        <line id="線_3-123" data-name="線 3" x2="100" transform="translate(0 45.114) rotate(-45)" fill="none" stroke="#fff" stroke-width="7"/>
      </g>
      <g transform="translate(1007.475 422.589)">
        <line id="線_3-124" data-name="線 3" x2="100" transform="translate(0 45.114) rotate(-45)" fill="none" stroke="#fff" stroke-width="7"/>
      </g>
      <g transform="translate(1074.475 422.589)">
        <line id="線_3-125" data-name="線 3" x2="100" transform="translate(0 45.114) rotate(-45)" fill="none" stroke="#fff" stroke-width="7"/>
      </g>
      <g transform="translate(1141.475 422.589)">
        <line id="線_3-126" data-name="線 3" x2="100" transform="translate(0 45.114) rotate(-45)" fill="none" stroke="#fff" stroke-width="7"/>
      </g>
      <g transform="translate(2.475 489.589)">
        <line id="線_3-127" data-name="線 3" x2="100" transform="translate(0 45.114) rotate(-45)" fill="none" stroke="#fff" stroke-width="7"/>
      </g>
      <g transform="translate(69.475 489.589)">
        <line id="線_3-128" data-name="線 3" x2="100" transform="translate(0 45.114) rotate(-45)" fill="none" stroke="#fff" stroke-width="7"/>
      </g>
      <g transform="translate(136.475 489.589)">
        <line id="線_3-129" data-name="線 3" x2="100" transform="translate(0 45.114) rotate(-45)" fill="none" stroke="#fff" stroke-width="7"/>
      </g>
      <g transform="translate(203.475 489.589)">
        <line id="線_3-130" data-name="線 3" x2="100" transform="translate(0 45.114) rotate(-45)" fill="none" stroke="#fff" stroke-width="7"/>
      </g>
      <g transform="translate(270.475 489.589)">
        <line id="線_3-131" data-name="線 3" x2="100" transform="translate(0 45.114) rotate(-45)" fill="none" stroke="#fff" stroke-width="7"/>
      </g>
      <g transform="translate(337.475 489.589)">
        <line id="線_3-132" data-name="線 3" x2="100" transform="translate(0 45.114) rotate(-45)" fill="none" stroke="#fff" stroke-width="7"/>
      </g>
      <g transform="translate(404.475 489.589)">
        <line id="線_3-133" data-name="線 3" x2="100" transform="translate(0 45.114) rotate(-45)" fill="none" stroke="#fff" stroke-width="7"/>
      </g>
      <g transform="translate(471.475 489.589)">
        <line id="線_3-134" data-name="線 3" x2="100" transform="translate(0 45.114) rotate(-45)" fill="none" stroke="#fff" stroke-width="7"/>
      </g>
      <g transform="translate(538.475 489.589)">
        <line id="線_3-135" data-name="線 3" x2="100" transform="translate(0 45.114) rotate(-45)" fill="none" stroke="#fff" stroke-width="7"/>
      </g>
      <g transform="translate(605.475 489.589)">
        <line id="線_3-136" data-name="線 3" x2="100" transform="translate(0 45.114) rotate(-45)" fill="none" stroke="#fff" stroke-width="7"/>
      </g>
      <g transform="translate(672.475 489.589)">
        <line id="線_3-137" data-name="線 3" x2="100" transform="translate(0 45.114) rotate(-45)" fill="none" stroke="#fff" stroke-width="7"/>
      </g>
      <g transform="translate(739.475 489.589)">
        <line id="線_3-138" data-name="線 3" x2="100" transform="translate(0 45.114) rotate(-45)" fill="none" stroke="#fff" stroke-width="7"/>
      </g>
      <g transform="translate(806.475 489.589)">
        <line id="線_3-139" data-name="線 3" x2="100" transform="translate(0 45.114) rotate(-45)" fill="none" stroke="#fff" stroke-width="7"/>
      </g>
      <g transform="translate(873.475 489.589)">
        <line id="線_3-140" data-name="線 3" x2="100" transform="translate(0 45.114) rotate(-45)" fill="none" stroke="#fff" stroke-width="7"/>
      </g>
      <g transform="translate(940.475 489.589)">
        <line id="線_3-141" data-name="線 3" x2="100" transform="translate(0 45.114) rotate(-45)" fill="none" stroke="#fff" stroke-width="7"/>
      </g>
      <g transform="translate(1007.475 489.589)">
        <line id="線_3-142" data-name="線 3" x2="100" transform="translate(0 45.114) rotate(-45)" fill="none" stroke="#fff" stroke-width="7"/>
      </g>
      <g transform="translate(1074.475 489.589)">
        <line id="線_3-143" data-name="線 3" x2="100" transform="translate(0 45.114) rotate(-45)" fill="none" stroke="#fff" stroke-width="7"/>
      </g>
      <g transform="translate(1141.475 489.589)">
        <line id="線_3-144" data-name="線 3" x2="100" transform="translate(0 45.114) rotate(-45)" fill="none" stroke="#fff" stroke-width="7"/>
      </g>
      <g transform="translate(2.475 556.589)">
        <line id="線_3-145" data-name="線 3" x2="100" transform="translate(0 45.114) rotate(-45)" fill="none" stroke="#fff" stroke-width="7"/>
      </g>
      <g transform="translate(69.475 556.589)">
        <line id="線_3-146" data-name="線 3" x2="100" transform="translate(0 45.114) rotate(-45)" fill="none" stroke="#fff" stroke-width="7"/>
      </g>
      <g transform="translate(136.475 556.589)">
        <line id="線_3-147" data-name="線 3" x2="100" transform="translate(0 45.114) rotate(-45)" fill="none" stroke="#fff" stroke-width="7"/>
      </g>
      <g transform="translate(203.475 556.589)">
        <line id="線_3-148" data-name="線 3" x2="100" transform="translate(0 45.114) rotate(-45)" fill="none" stroke="#fff" stroke-width="7"/>
      </g>
      <g transform="translate(270.475 556.589)">
        <line id="線_3-149" data-name="線 3" x2="100" transform="translate(0 45.114) rotate(-45)" fill="none" stroke="#fff" stroke-width="7"/>
      </g>
      <g transform="translate(337.475 556.589)">
        <line id="線_3-150" data-name="線 3" x2="100" transform="translate(0 45.114) rotate(-45)" fill="none" stroke="#fff" stroke-width="7"/>
      </g>
      <g transform="translate(404.475 556.589)">
        <line id="線_3-151" data-name="線 3" x2="100" transform="translate(0 45.114) rotate(-45)" fill="none" stroke="#fff" stroke-width="7"/>
      </g>
      <g transform="translate(471.475 556.589)">
        <line id="線_3-152" data-name="線 3" x2="100" transform="translate(0 45.114) rotate(-45)" fill="none" stroke="#fff" stroke-width="7"/>
      </g>
      <g transform="translate(538.475 556.589)">
        <line id="線_3-153" data-name="線 3" x2="100" transform="translate(0 45.114) rotate(-45)" fill="none" stroke="#fff" stroke-width="7"/>
      </g>
      <g transform="translate(605.475 556.589)">
        <line id="線_3-154" data-name="線 3" x2="100" transform="translate(0 45.114) rotate(-45)" fill="none" stroke="#fff" stroke-width="7"/>
      </g>
      <g transform="translate(672.475 556.589)">
        <line id="線_3-155" data-name="線 3" x2="100" transform="translate(0 45.114) rotate(-45)" fill="none" stroke="#fff" stroke-width="7"/>
      </g>
      <g transform="translate(739.475 556.589)">
        <line id="線_3-156" data-name="線 3" x2="100" transform="translate(0 45.114) rotate(-45)" fill="none" stroke="#fff" stroke-width="7"/>
      </g>
      <g transform="translate(806.475 556.589)">
        <line id="線_3-157" data-name="線 3" x2="100" transform="translate(0 45.114) rotate(-45)" fill="none" stroke="#fff" stroke-width="7"/>
      </g>
      <g transform="translate(873.475 556.589)">
        <line id="線_3-158" data-name="線 3" x2="100" transform="translate(0 45.114) rotate(-45)" fill="none" stroke="#fff" stroke-width="7"/>
      </g>
      <g transform="translate(940.475 556.589)">
        <line id="線_3-159" data-name="線 3" x2="100" transform="translate(0 45.114) rotate(-45)" fill="none" stroke="#fff" stroke-width="7"/>
      </g>
      <g transform="translate(1007.475 556.589)">
        <line id="線_3-160" data-name="線 3" x2="100" transform="translate(0 45.114) rotate(-45)" fill="none" stroke="#fff" stroke-width="7"/>
      </g>
      <g transform="translate(1074.475 556.589)">
        <line id="線_3-161" data-name="線 3" x2="100" transform="translate(0 45.114) rotate(-45)" fill="none" stroke="#fff" stroke-width="7"/>
      </g>
      <g transform="translate(1141.475 556.589)">
        <line id="線_3-162" data-name="線 3" x2="100" transform="translate(0 45.114) rotate(-45)" fill="none" stroke="#fff" stroke-width="7"/>
      </g>
      <g transform="translate(2.475 623.589)">
        <line id="線_3-163" data-name="線 3" x2="100" transform="translate(0 45.114) rotate(-45)" fill="none" stroke="#fff" stroke-width="7"/>
      </g>
      <g transform="translate(69.475 623.589)">
        <line id="線_3-164" data-name="線 3" x2="100" transform="translate(0 45.114) rotate(-45)" fill="none" stroke="#fff" stroke-width="7"/>
      </g>
      <g transform="translate(136.475 623.589)">
        <line id="線_3-165" data-name="線 3" x2="100" transform="translate(0 45.114) rotate(-45)" fill="none" stroke="#fff" stroke-width="7"/>
      </g>
      <g transform="translate(203.475 623.589)">
        <line id="線_3-166" data-name="線 3" x2="100" transform="translate(0 45.114) rotate(-45)" fill="none" stroke="#fff" stroke-width="7"/>
      </g>
      <g transform="translate(270.475 623.589)">
        <line id="線_3-167" data-name="線 3" x2="100" transform="translate(0 45.114) rotate(-45)" fill="none" stroke="#fff" stroke-width="7"/>
      </g>
      <g transform="translate(337.475 623.589)">
        <line id="線_3-168" data-name="線 3" x2="100" transform="translate(0 45.114) rotate(-45)" fill="none" stroke="#fff" stroke-width="7"/>
      </g>
      <g transform="translate(404.475 623.589)">
        <line id="線_3-169" data-name="線 3" x2="100" transform="translate(0 45.114) rotate(-45)" fill="none" stroke="#fff" stroke-width="7"/>
      </g>
      <g transform="translate(471.475 623.589)">
        <line id="線_3-170" data-name="線 3" x2="100" transform="translate(0 45.114) rotate(-45)" fill="none" stroke="#fff" stroke-width="7"/>
      </g>
      <g transform="translate(538.475 623.589)">
        <line id="線_3-171" data-name="線 3" x2="100" transform="translate(0 45.114) rotate(-45)" fill="none" stroke="#fff" stroke-width="7"/>
      </g>
      <g transform="translate(605.475 623.589)">
        <line id="線_3-172" data-name="線 3" x2="100" transform="translate(0 45.114) rotate(-45)" fill="none" stroke="#fff" stroke-width="7"/>
      </g>
      <g transform="translate(672.475 623.589)">
        <line id="線_3-173" data-name="線 3" x2="100" transform="translate(0 45.114) rotate(-45)" fill="none" stroke="#fff" stroke-width="7"/>
      </g>
      <g transform="translate(739.475 623.589)">
        <line id="線_3-174" data-name="線 3" x2="100" transform="translate(0 45.114) rotate(-45)" fill="none" stroke="#fff" stroke-width="7"/>
      </g>
      <g transform="translate(806.475 623.589)">
        <line id="線_3-175" data-name="線 3" x2="100" transform="translate(0 45.114) rotate(-45)" fill="none" stroke="#fff" stroke-width="7"/>
      </g>
      <g transform="translate(873.475 623.589)">
        <line id="線_3-176" data-name="線 3" x2="100" transform="translate(0 45.114) rotate(-45)" fill="none" stroke="#fff" stroke-width="7"/>
      </g>
      <g transform="translate(940.475 623.589)">
        <line id="線_3-177" data-name="線 3" x2="100" transform="translate(0 45.114) rotate(-45)" fill="none" stroke="#fff" stroke-width="7"/>
      </g>
      <g transform="translate(1007.475 623.589)">
        <line id="線_3-178" data-name="線 3" x2="100" transform="translate(0 45.114) rotate(-45)" fill="none" stroke="#fff" stroke-width="7"/>
      </g>
      <g transform="translate(1074.475 623.589)">
        <line id="線_3-179" data-name="線 3" x2="100" transform="translate(0 45.114) rotate(-45)" fill="none" stroke="#fff" stroke-width="7"/>
      </g>
      <g transform="translate(1141.475 623.589)">
        <line id="線_3-180" data-name="線 3" x2="100" transform="translate(0 45.114) rotate(-45)" fill="none" stroke="#fff" stroke-width="7"/>
      </g>
      <g transform="translate(2.475 690.589)">
        <line id="線_3-181" data-name="線 3" x2="100" transform="translate(0 45.114) rotate(-45)" fill="none" stroke="#fff" stroke-width="7"/>
      </g>
      <g transform="translate(69.475 690.589)">
        <line id="線_3-182" data-name="線 3" x2="100" transform="translate(0 45.114) rotate(-45)" fill="none" stroke="#fff" stroke-width="7"/>
      </g>
      <g transform="translate(136.475 690.589)">
        <line id="線_3-183" data-name="線 3" x2="100" transform="translate(0 45.114) rotate(-45)" fill="none" stroke="#fff" stroke-width="7"/>
      </g>
      <g transform="translate(203.475 690.589)">
        <line id="線_3-184" data-name="線 3" x2="100" transform="translate(0 45.114) rotate(-45)" fill="none" stroke="#fff" stroke-width="7"/>
      </g>
      <g transform="translate(270.475 690.589)">
        <line id="線_3-185" data-name="線 3" x2="100" transform="translate(0 45.114) rotate(-45)" fill="none" stroke="#fff" stroke-width="7"/>
      </g>
      <g transform="translate(337.475 690.589)">
        <line id="線_3-186" data-name="線 3" x2="100" transform="translate(0 45.114) rotate(-45)" fill="none" stroke="#fff" stroke-width="7"/>
      </g>
      <g transform="translate(404.475 690.589)">
        <line id="線_3-187" data-name="線 3" x2="100" transform="translate(0 45.114) rotate(-45)" fill="none" stroke="#fff" stroke-width="7"/>
      </g>
      <g transform="translate(471.475 690.589)">
        <line id="線_3-188" data-name="線 3" x2="100" transform="translate(0 45.114) rotate(-45)" fill="none" stroke="#fff" stroke-width="7"/>
      </g>
      <g transform="translate(538.475 690.589)">
        <line id="線_3-189" data-name="線 3" x2="100" transform="translate(0 45.114) rotate(-45)" fill="none" stroke="#fff" stroke-width="7"/>
      </g>
      <g transform="translate(605.475 690.589)">
        <line id="線_3-190" data-name="線 3" x2="100" transform="translate(0 45.114) rotate(-45)" fill="none" stroke="#fff" stroke-width="7"/>
      </g>
      <g transform="translate(672.475 690.589)">
        <line id="線_3-191" data-name="線 3" x2="100" transform="translate(0 45.114) rotate(-45)" fill="none" stroke="#fff" stroke-width="7"/>
      </g>
      <g transform="translate(739.475 690.589)">
        <line id="線_3-192" data-name="線 3" x2="100" transform="translate(0 45.114) rotate(-45)" fill="none" stroke="#fff" stroke-width="7"/>
      </g>
      <g transform="translate(806.475 690.589)">
        <line id="線_3-193" data-name="線 3" x2="100" transform="translate(0 45.114) rotate(-45)" fill="none" stroke="#fff" stroke-width="7"/>
      </g>
      <g transform="translate(873.475 690.589)">
        <line id="線_3-194" data-name="線 3" x2="100" transform="translate(0 45.114) rotate(-45)" fill="none" stroke="#fff" stroke-width="7"/>
      </g>
      <g transform="translate(940.475 690.589)">
        <line id="線_3-195" data-name="線 3" x2="100" transform="translate(0 45.114) rotate(-45)" fill="none" stroke="#fff" stroke-width="7"/>
      </g>
      <g transform="translate(1007.475 690.589)">
        <line id="線_3-196" data-name="線 3" x2="100" transform="translate(0 45.114) rotate(-45)" fill="none" stroke="#fff" stroke-width="7"/>
      </g>
      <g transform="translate(1074.475 690.589)">
        <line id="線_3-197" data-name="線 3" x2="100" transform="translate(0 45.114) rotate(-45)" fill="none" stroke="#fff" stroke-width="7"/>
      </g>
      <g transform="translate(1141.475 690.589)">
        <line id="線_3-198" data-name="線 3" x2="100" transform="translate(0 45.114) rotate(-45)" fill="none" stroke="#fff" stroke-width="7"/>
      </g>
    </g>
    <rect id="長方形_52" data-name="長方形 52" width="1116" height="589" transform="translate(42 43)" fill="#fff8cc"/>
  </g>
</svg>
