<svg xmlns="http://www.w3.org/2000/svg" xmlns:xlink="http://www.w3.org/1999/xlink" width="1200" height="675" viewBox="0 0 1200 675">
  <defs>
    <clipPath id="clip-path">
      <rect width="1200" height="675" fill="none"/>
    </clipPath>
    <clipPath id="clip-bg02">
      <rect width="1200" height="675"/>
    </clipPath>
  </defs>
  <g id="bg02" clip-path="url(#clip-bg02)">
    <rect width="1200" height="675" fill="#76b982"/>
    <g id="リピートグリッド_6" data-name="リピートグリッド 6" opacity="0.029" clip-path="url(#clip-path)" style="mix-blend-mode: color-dodge;isolation: isolate">
      <g transform="translate(2.475 20.589)">
        <line id="線_3" data-name="線 3" x2="100" transform="translate(0 45.114) rotate(-45)" fill="none" stroke="#ff703b" stroke-width="7"/>
      </g>
      <g transform="translate(69.475 20.589)">
        <line id="線_3-2" data-name="線 3" x2="100" transform="translate(0 45.114) rotate(-45)" fill="none" stroke="#ff703b" stroke-width="7"/>
      </g>
      <g transform="translate(136.475 20.589)">
        <line id="線_3-3" data-name="線 3" x2="100" transform="translate(0 45.114) rotate(-45)" fill="none" stroke="#ff703b" stroke-width="7"/>
      </g>
      <g transform="translate(203.475 20.589)">
        <line id="線_3-4" data-name="線 3" x2="100" transform="translate(0 45.114) rotate(-45)" fill="none" stroke="#ff703b" stroke-width="7"/>
      </g>
      <g transform="translate(270.475 20.589)">
        <line id="線_3-5" data-name="線 3" x2="100" transform="translate(0 45.114) rotate(-45)" fill="none" stroke="#ff703b" stroke-width="7"/>
      </g>
      <g transform="translate(337.475 20.589)">
        <line id="線_3-6" data-name="線 3" x2="100" transform="translate(0 45.114) rotate(-45)" fill="none" stroke="#ff703b" stroke-width="7"/>
      </g>
      <g transform="translate(404.475 20.589)">
        <line id="線_3-7" data-name="線 3" x2="100" transform="translate(0 45.114) rotate(-45)" fill="none" stroke="#ff703b" stroke-width="7"/>
      </g>
      <g transform="translate(471.475 20.589)">
        <line id="線_3-8" data-name="線 3" x2="100" transform="translate(0 45.114) rotate(-45)" fill="none" stroke="#ff703b" stroke-width="7"/>
      </g>
      <g transform="translate(538.475 20.589)">
        <line id="線_3-9" data-name="線 3" x2="100" transform="translate(0 45.114) rotate(-45)" fill="none" stroke="#ff703b" stroke-width="7"/>
      </g>
      <g transform="translate(605.475 20.589)">
        <line id="線_3-10" data-name="線 3" x2="100" transform="translate(0 45.114) rotate(-45)" fill="none" stroke="#ff703b" stroke-width="7"/>
      </g>
      <g transform="translate(672.475 20.589)">
        <line id="線_3-11" data-name="線 3" x2="100" transform="translate(0 45.114) rotate(-45)" fill="none" stroke="#ff703b" stroke-width="7"/>
      </g>
      <g transform="translate(739.475 20.589)">
        <line id="線_3-12" data-name="線 3" x2="100" transform="translate(0 45.114) rotate(-45)" fill="none" stroke="#ff703b" stroke-width="7"/>
      </g>
      <g transform="translate(806.475 20.589)">
        <line id="線_3-13" data-name="線 3" x2="100" transform="translate(0 45.114) rotate(-45)" fill="none" stroke="#ff703b" stroke-width="7"/>
      </g>
      <g transform="translate(873.475 20.589)">
        <line id="線_3-14" data-name="線 3" x2="100" transform="translate(0 45.114) rotate(-45)" fill="none" stroke="#ff703b" stroke-width="7"/>
      </g>
      <g transform="translate(940.475 20.589)">
        <line id="線_3-15" data-name="線 3" x2="100" transform="translate(0 45.114) rotate(-45)" fill="none" stroke="#ff703b" stroke-width="7"/>
      </g>
      <g transform="translate(1007.475 20.589)">
        <line id="線_3-16" data-name="線 3" x2="100" transform="translate(0 45.114) rotate(-45)" fill="none" stroke="#ff703b" stroke-width="7"/>
      </g>
      <g transform="translate(1074.475 20.589)">
        <line id="線_3-17" data-name="線 3" x2="100" transform="translate(0 45.114) rotate(-45)" fill="none" stroke="#ff703b" stroke-width="7"/>
      </g>
      <g transform="translate(1141.475 20.589)">
        <line id="線_3-18" data-name="線 3" x2="100" transform="translate(0 45.114) rotate(-45)" fill="none" stroke="#ff703b" stroke-width="7"/>
      </g>
      <g transform="translate(2.475 87.589)">
        <line id="線_3-19" data-name="線 3" x2="100" transform="translate(0 45.114) rotate(-45)" fill="none" stroke="#ff703b" stroke-width="7"/>
      </g>
      <g transform="translate(69.475 87.589)">
        <line id="線_3-20" data-name="線 3" x2="100" transform="translate(0 45.114) rotate(-45)" fill="none" stroke="#ff703b" stroke-width="7"/>
      </g>
      <g transform="translate(136.475 87.589)">
        <line id="線_3-21" data-name="線 3" x2="100" transform="translate(0 45.114) rotate(-45)" fill="none" stroke="#ff703b" stroke-width="7"/>
      </g>
      <g transform="translate(203.475 87.589)">
        <line id="線_3-22" data-name="線 3" x2="100" transform="translate(0 45.114) rotate(-45)" fill="none" stroke="#ff703b" stroke-width="7"/>
      </g>
      <g transform="translate(270.475 87.589)">
        <line id="線_3-23" data-name="線 3" x2="100" transform="translate(0 45.114) rotate(-45)" fill="none" stroke="#ff703b" stroke-width="7"/>
      </g>
      <g transform="translate(337.475 87.589)">
        <line id="線_3-24" data-name="線 3" x2="100" transform="translate(0 45.114) rotate(-45)" fill="none" stroke="#ff703b" stroke-width="7"/>
      </g>
      <g transform="translate(404.475 87.589)">
        <line id="線_3-25" data-name="線 3" x2="100" transform="translate(0 45.114) rotate(-45)" fill="none" stroke="#ff703b" stroke-width="7"/>
      </g>
      <g transform="translate(471.475 87.589)">
        <line id="線_3-26" data-name="線 3" x2="100" transform="translate(0 45.114) rotate(-45)" fill="none" stroke="#ff703b" stroke-width="7"/>
      </g>
      <g transform="translate(538.475 87.589)">
        <line id="線_3-27" data-name="線 3" x2="100" transform="translate(0 45.114) rotate(-45)" fill="none" stroke="#ff703b" stroke-width="7"/>
      </g>
      <g transform="translate(605.475 87.589)">
        <line id="線_3-28" data-name="線 3" x2="100" transform="translate(0 45.114) rotate(-45)" fill="none" stroke="#ff703b" stroke-width="7"/>
      </g>
      <g transform="translate(672.475 87.589)">
        <line id="線_3-29" data-name="線 3" x2="100" transform="translate(0 45.114) rotate(-45)" fill="none" stroke="#ff703b" stroke-width="7"/>
      </g>
      <g transform="translate(739.475 87.589)">
        <line id="線_3-30" data-name="線 3" x2="100" transform="translate(0 45.114) rotate(-45)" fill="none" stroke="#ff703b" stroke-width="7"/>
      </g>
      <g transform="translate(806.475 87.589)">
        <line id="線_3-31" data-name="線 3" x2="100" transform="translate(0 45.114) rotate(-45)" fill="none" stroke="#ff703b" stroke-width="7"/>
      </g>
      <g transform="translate(873.475 87.589)">
        <line id="線_3-32" data-name="線 3" x2="100" transform="translate(0 45.114) rotate(-45)" fill="none" stroke="#ff703b" stroke-width="7"/>
      </g>
      <g transform="translate(940.475 87.589)">
        <line id="線_3-33" data-name="線 3" x2="100" transform="translate(0 45.114) rotate(-45)" fill="none" stroke="#ff703b" stroke-width="7"/>
      </g>
      <g transform="translate(1007.475 87.589)">
        <line id="線_3-34" data-name="線 3" x2="100" transform="translate(0 45.114) rotate(-45)" fill="none" stroke="#ff703b" stroke-width="7"/>
      </g>
      <g transform="translate(1074.475 87.589)">
        <line id="線_3-35" data-name="線 3" x2="100" transform="translate(0 45.114) rotate(-45)" fill="none" stroke="#ff703b" stroke-width="7"/>
      </g>
      <g transform="translate(1141.475 87.589)">
        <line id="線_3-36" data-name="線 3" x2="100" transform="translate(0 45.114) rotate(-45)" fill="none" stroke="#ff703b" stroke-width="7"/>
      </g>
      <g transform="translate(2.475 154.589)">
        <line id="線_3-37" data-name="線 3" x2="100" transform="translate(0 45.114) rotate(-45)" fill="none" stroke="#ff703b" stroke-width="7"/>
      </g>
      <g transform="translate(69.475 154.589)">
        <line id="線_3-38" data-name="線 3" x2="100" transform="translate(0 45.114) rotate(-45)" fill="none" stroke="#ff703b" stroke-width="7"/>
      </g>
      <g transform="translate(136.475 154.589)">
        <line id="線_3-39" data-name="線 3" x2="100" transform="translate(0 45.114) rotate(-45)" fill="none" stroke="#ff703b" stroke-width="7"/>
      </g>
      <g transform="translate(203.475 154.589)">
        <line id="線_3-40" data-name="線 3" x2="100" transform="translate(0 45.114) rotate(-45)" fill="none" stroke="#ff703b" stroke-width="7"/>
      </g>
      <g transform="translate(270.475 154.589)">
        <line id="線_3-41" data-name="線 3" x2="100" transform="translate(0 45.114) rotate(-45)" fill="none" stroke="#ff703b" stroke-width="7"/>
      </g>
      <g transform="translate(337.475 154.589)">
        <line id="線_3-42" data-name="線 3" x2="100" transform="translate(0 45.114) rotate(-45)" fill="none" stroke="#ff703b" stroke-width="7"/>
      </g>
      <g transform="translate(404.475 154.589)">
        <line id="線_3-43" data-name="線 3" x2="100" transform="translate(0 45.114) rotate(-45)" fill="none" stroke="#ff703b" stroke-width="7"/>
      </g>
      <g transform="translate(471.475 154.589)">
        <line id="線_3-44" data-name="線 3" x2="100" transform="translate(0 45.114) rotate(-45)" fill="none" stroke="#ff703b" stroke-width="7"/>
      </g>
      <g transform="translate(538.475 154.589)">
        <line id="線_3-45" data-name="線 3" x2="100" transform="translate(0 45.114) rotate(-45)" fill="none" stroke="#ff703b" stroke-width="7"/>
      </g>
      <g transform="translate(605.475 154.589)">
        <line id="線_3-46" data-name="線 3" x2="100" transform="translate(0 45.114) rotate(-45)" fill="none" stroke="#ff703b" stroke-width="7"/>
      </g>
      <g transform="translate(672.475 154.589)">
        <line id="線_3-47" data-name="線 3" x2="100" transform="translate(0 45.114) rotate(-45)" fill="none" stroke="#ff703b" stroke-width="7"/>
      </g>
      <g transform="translate(739.475 154.589)">
        <line id="線_3-48" data-name="線 3" x2="100" transform="translate(0 45.114) rotate(-45)" fill="none" stroke="#ff703b" stroke-width="7"/>
      </g>
      <g transform="translate(806.475 154.589)">
        <line id="線_3-49" data-name="線 3" x2="100" transform="translate(0 45.114) rotate(-45)" fill="none" stroke="#ff703b" stroke-width="7"/>
      </g>
      <g transform="translate(873.475 154.589)">
        <line id="線_3-50" data-name="線 3" x2="100" transform="translate(0 45.114) rotate(-45)" fill="none" stroke="#ff703b" stroke-width="7"/>
      </g>
      <g transform="translate(940.475 154.589)">
        <line id="線_3-51" data-name="線 3" x2="100" transform="translate(0 45.114) rotate(-45)" fill="none" stroke="#ff703b" stroke-width="7"/>
      </g>
      <g transform="translate(1007.475 154.589)">
        <line id="線_3-52" data-name="線 3" x2="100" transform="translate(0 45.114) rotate(-45)" fill="none" stroke="#ff703b" stroke-width="7"/>
      </g>
      <g transform="translate(1074.475 154.589)">
        <line id="線_3-53" data-name="線 3" x2="100" transform="translate(0 45.114) rotate(-45)" fill="none" stroke="#ff703b" stroke-width="7"/>
      </g>
      <g transform="translate(1141.475 154.589)">
        <line id="線_3-54" data-name="線 3" x2="100" transform="translate(0 45.114) rotate(-45)" fill="none" stroke="#ff703b" stroke-width="7"/>
      </g>
      <g transform="translate(2.475 221.589)">
        <line id="線_3-55" data-name="線 3" x2="100" transform="translate(0 45.114) rotate(-45)" fill="none" stroke="#ff703b" stroke-width="7"/>
      </g>
      <g transform="translate(69.475 221.589)">
        <line id="線_3-56" data-name="線 3" x2="100" transform="translate(0 45.114) rotate(-45)" fill="none" stroke="#ff703b" stroke-width="7"/>
      </g>
      <g transform="translate(136.475 221.589)">
        <line id="線_3-57" data-name="線 3" x2="100" transform="translate(0 45.114) rotate(-45)" fill="none" stroke="#ff703b" stroke-width="7"/>
      </g>
      <g transform="translate(203.475 221.589)">
        <line id="線_3-58" data-name="線 3" x2="100" transform="translate(0 45.114) rotate(-45)" fill="none" stroke="#ff703b" stroke-width="7"/>
      </g>
      <g transform="translate(270.475 221.589)">
        <line id="線_3-59" data-name="線 3" x2="100" transform="translate(0 45.114) rotate(-45)" fill="none" stroke="#ff703b" stroke-width="7"/>
      </g>
      <g transform="translate(337.475 221.589)">
        <line id="線_3-60" data-name="線 3" x2="100" transform="translate(0 45.114) rotate(-45)" fill="none" stroke="#ff703b" stroke-width="7"/>
      </g>
      <g transform="translate(404.475 221.589)">
        <line id="線_3-61" data-name="線 3" x2="100" transform="translate(0 45.114) rotate(-45)" fill="none" stroke="#ff703b" stroke-width="7"/>
      </g>
      <g transform="translate(471.475 221.589)">
        <line id="線_3-62" data-name="線 3" x2="100" transform="translate(0 45.114) rotate(-45)" fill="none" stroke="#ff703b" stroke-width="7"/>
      </g>
      <g transform="translate(538.475 221.589)">
        <line id="線_3-63" data-name="線 3" x2="100" transform="translate(0 45.114) rotate(-45)" fill="none" stroke="#ff703b" stroke-width="7"/>
      </g>
      <g transform="translate(605.475 221.589)">
        <line id="線_3-64" data-name="線 3" x2="100" transform="translate(0 45.114) rotate(-45)" fill="none" stroke="#ff703b" stroke-width="7"/>
      </g>
      <g transform="translate(672.475 221.589)">
        <line id="線_3-65" data-name="線 3" x2="100" transform="translate(0 45.114) rotate(-45)" fill="none" stroke="#ff703b" stroke-width="7"/>
      </g>
      <g transform="translate(739.475 221.589)">
        <line id="線_3-66" data-name="線 3" x2="100" transform="translate(0 45.114) rotate(-45)" fill="none" stroke="#ff703b" stroke-width="7"/>
      </g>
      <g transform="translate(806.475 221.589)">
        <line id="線_3-67" data-name="線 3" x2="100" transform="translate(0 45.114) rotate(-45)" fill="none" stroke="#ff703b" stroke-width="7"/>
      </g>
      <g transform="translate(873.475 221.589)">
        <line id="線_3-68" data-name="線 3" x2="100" transform="translate(0 45.114) rotate(-45)" fill="none" stroke="#ff703b" stroke-width="7"/>
      </g>
      <g transform="translate(940.475 221.589)">
        <line id="線_3-69" data-name="線 3" x2="100" transform="translate(0 45.114) rotate(-45)" fill="none" stroke="#ff703b" stroke-width="7"/>
      </g>
      <g transform="translate(1007.475 221.589)">
        <line id="線_3-70" data-name="線 3" x2="100" transform="translate(0 45.114) rotate(-45)" fill="none" stroke="#ff703b" stroke-width="7"/>
      </g>
      <g transform="translate(1074.475 221.589)">
        <line id="線_3-71" data-name="線 3" x2="100" transform="translate(0 45.114) rotate(-45)" fill="none" stroke="#ff703b" stroke-width="7"/>
      </g>
      <g transform="translate(1141.475 221.589)">
        <line id="線_3-72" data-name="線 3" x2="100" transform="translate(0 45.114) rotate(-45)" fill="none" stroke="#ff703b" stroke-width="7"/>
      </g>
      <g transform="translate(2.475 288.589)">
        <line id="線_3-73" data-name="線 3" x2="100" transform="translate(0 45.114) rotate(-45)" fill="none" stroke="#ff703b" stroke-width="7"/>
      </g>
      <g transform="translate(69.475 288.589)">
        <line id="線_3-74" data-name="線 3" x2="100" transform="translate(0 45.114) rotate(-45)" fill="none" stroke="#ff703b" stroke-width="7"/>
      </g>
      <g transform="translate(136.475 288.589)">
        <line id="線_3-75" data-name="線 3" x2="100" transform="translate(0 45.114) rotate(-45)" fill="none" stroke="#ff703b" stroke-width="7"/>
      </g>
      <g transform="translate(203.475 288.589)">
        <line id="線_3-76" data-name="線 3" x2="100" transform="translate(0 45.114) rotate(-45)" fill="none" stroke="#ff703b" stroke-width="7"/>
      </g>
      <g transform="translate(270.475 288.589)">
        <line id="線_3-77" data-name="線 3" x2="100" transform="translate(0 45.114) rotate(-45)" fill="none" stroke="#ff703b" stroke-width="7"/>
      </g>
      <g transform="translate(337.475 288.589)">
        <line id="線_3-78" data-name="線 3" x2="100" transform="translate(0 45.114) rotate(-45)" fill="none" stroke="#ff703b" stroke-width="7"/>
      </g>
      <g transform="translate(404.475 288.589)">
        <line id="線_3-79" data-name="線 3" x2="100" transform="translate(0 45.114) rotate(-45)" fill="none" stroke="#ff703b" stroke-width="7"/>
      </g>
      <g transform="translate(471.475 288.589)">
        <line id="線_3-80" data-name="線 3" x2="100" transform="translate(0 45.114) rotate(-45)" fill="none" stroke="#ff703b" stroke-width="7"/>
      </g>
      <g transform="translate(538.475 288.589)">
        <line id="線_3-81" data-name="線 3" x2="100" transform="translate(0 45.114) rotate(-45)" fill="none" stroke="#ff703b" stroke-width="7"/>
      </g>
      <g transform="translate(605.475 288.589)">
        <line id="線_3-82" data-name="線 3" x2="100" transform="translate(0 45.114) rotate(-45)" fill="none" stroke="#ff703b" stroke-width="7"/>
      </g>
      <g transform="translate(672.475 288.589)">
        <line id="線_3-83" data-name="線 3" x2="100" transform="translate(0 45.114) rotate(-45)" fill="none" stroke="#ff703b" stroke-width="7"/>
      </g>
      <g transform="translate(739.475 288.589)">
        <line id="線_3-84" data-name="線 3" x2="100" transform="translate(0 45.114) rotate(-45)" fill="none" stroke="#ff703b" stroke-width="7"/>
      </g>
      <g transform="translate(806.475 288.589)">
        <line id="線_3-85" data-name="線 3" x2="100" transform="translate(0 45.114) rotate(-45)" fill="none" stroke="#ff703b" stroke-width="7"/>
      </g>
      <g transform="translate(873.475 288.589)">
        <line id="線_3-86" data-name="線 3" x2="100" transform="translate(0 45.114) rotate(-45)" fill="none" stroke="#ff703b" stroke-width="7"/>
      </g>
      <g transform="translate(940.475 288.589)">
        <line id="線_3-87" data-name="線 3" x2="100" transform="translate(0 45.114) rotate(-45)" fill="none" stroke="#ff703b" stroke-width="7"/>
      </g>
      <g transform="translate(1007.475 288.589)">
        <line id="線_3-88" data-name="線 3" x2="100" transform="translate(0 45.114) rotate(-45)" fill="none" stroke="#ff703b" stroke-width="7"/>
      </g>
      <g transform="translate(1074.475 288.589)">
        <line id="線_3-89" data-name="線 3" x2="100" transform="translate(0 45.114) rotate(-45)" fill="none" stroke="#ff703b" stroke-width="7"/>
      </g>
      <g transform="translate(1141.475 288.589)">
        <line id="線_3-90" data-name="線 3" x2="100" transform="translate(0 45.114) rotate(-45)" fill="none" stroke="#ff703b" stroke-width="7"/>
      </g>
      <g transform="translate(2.475 355.589)">
        <line id="線_3-91" data-name="線 3" x2="100" transform="translate(0 45.114) rotate(-45)" fill="none" stroke="#ff703b" stroke-width="7"/>
      </g>
      <g transform="translate(69.475 355.589)">
        <line id="線_3-92" data-name="線 3" x2="100" transform="translate(0 45.114) rotate(-45)" fill="none" stroke="#ff703b" stroke-width="7"/>
      </g>
      <g transform="translate(136.475 355.589)">
        <line id="線_3-93" data-name="線 3" x2="100" transform="translate(0 45.114) rotate(-45)" fill="none" stroke="#ff703b" stroke-width="7"/>
      </g>
      <g transform="translate(203.475 355.589)">
        <line id="線_3-94" data-name="線 3" x2="100" transform="translate(0 45.114) rotate(-45)" fill="none" stroke="#ff703b" stroke-width="7"/>
      </g>
      <g transform="translate(270.475 355.589)">
        <line id="線_3-95" data-name="線 3" x2="100" transform="translate(0 45.114) rotate(-45)" fill="none" stroke="#ff703b" stroke-width="7"/>
      </g>
      <g transform="translate(337.475 355.589)">
        <line id="線_3-96" data-name="線 3" x2="100" transform="translate(0 45.114) rotate(-45)" fill="none" stroke="#ff703b" stroke-width="7"/>
      </g>
      <g transform="translate(404.475 355.589)">
        <line id="線_3-97" data-name="線 3" x2="100" transform="translate(0 45.114) rotate(-45)" fill="none" stroke="#ff703b" stroke-width="7"/>
      </g>
      <g transform="translate(471.475 355.589)">
        <line id="線_3-98" data-name="線 3" x2="100" transform="translate(0 45.114) rotate(-45)" fill="none" stroke="#ff703b" stroke-width="7"/>
      </g>
      <g transform="translate(538.475 355.589)">
        <line id="線_3-99" data-name="線 3" x2="100" transform="translate(0 45.114) rotate(-45)" fill="none" stroke="#ff703b" stroke-width="7"/>
      </g>
      <g transform="translate(605.475 355.589)">
        <line id="線_3-100" data-name="線 3" x2="100" transform="translate(0 45.114) rotate(-45)" fill="none" stroke="#ff703b" stroke-width="7"/>
      </g>
      <g transform="translate(672.475 355.589)">
        <line id="線_3-101" data-name="線 3" x2="100" transform="translate(0 45.114) rotate(-45)" fill="none" stroke="#ff703b" stroke-width="7"/>
      </g>
      <g transform="translate(739.475 355.589)">
        <line id="線_3-102" data-name="線 3" x2="100" transform="translate(0 45.114) rotate(-45)" fill="none" stroke="#ff703b" stroke-width="7"/>
      </g>
      <g transform="translate(806.475 355.589)">
        <line id="線_3-103" data-name="線 3" x2="100" transform="translate(0 45.114) rotate(-45)" fill="none" stroke="#ff703b" stroke-width="7"/>
      </g>
      <g transform="translate(873.475 355.589)">
        <line id="線_3-104" data-name="線 3" x2="100" transform="translate(0 45.114) rotate(-45)" fill="none" stroke="#ff703b" stroke-width="7"/>
      </g>
      <g transform="translate(940.475 355.589)">
        <line id="線_3-105" data-name="線 3" x2="100" transform="translate(0 45.114) rotate(-45)" fill="none" stroke="#ff703b" stroke-width="7"/>
      </g>
      <g transform="translate(1007.475 355.589)">
        <line id="線_3-106" data-name="線 3" x2="100" transform="translate(0 45.114) rotate(-45)" fill="none" stroke="#ff703b" stroke-width="7"/>
      </g>
      <g transform="translate(1074.475 355.589)">
        <line id="線_3-107" data-name="線 3" x2="100" transform="translate(0 45.114) rotate(-45)" fill="none" stroke="#ff703b" stroke-width="7"/>
      </g>
      <g transform="translate(1141.475 355.589)">
        <line id="線_3-108" data-name="線 3" x2="100" transform="translate(0 45.114) rotate(-45)" fill="none" stroke="#ff703b" stroke-width="7"/>
      </g>
      <g transform="translate(2.475 422.589)">
        <line id="線_3-109" data-name="線 3" x2="100" transform="translate(0 45.114) rotate(-45)" fill="none" stroke="#ff703b" stroke-width="7"/>
      </g>
      <g transform="translate(69.475 422.589)">
        <line id="線_3-110" data-name="線 3" x2="100" transform="translate(0 45.114) rotate(-45)" fill="none" stroke="#ff703b" stroke-width="7"/>
      </g>
      <g transform="translate(136.475 422.589)">
        <line id="線_3-111" data-name="線 3" x2="100" transform="translate(0 45.114) rotate(-45)" fill="none" stroke="#ff703b" stroke-width="7"/>
      </g>
      <g transform="translate(203.475 422.589)">
        <line id="線_3-112" data-name="線 3" x2="100" transform="translate(0 45.114) rotate(-45)" fill="none" stroke="#ff703b" stroke-width="7"/>
      </g>
      <g transform="translate(270.475 422.589)">
        <line id="線_3-113" data-name="線 3" x2="100" transform="translate(0 45.114) rotate(-45)" fill="none" stroke="#ff703b" stroke-width="7"/>
      </g>
      <g transform="translate(337.475 422.589)">
        <line id="線_3-114" data-name="線 3" x2="100" transform="translate(0 45.114) rotate(-45)" fill="none" stroke="#ff703b" stroke-width="7"/>
      </g>
      <g transform="translate(404.475 422.589)">
        <line id="線_3-115" data-name="線 3" x2="100" transform="translate(0 45.114) rotate(-45)" fill="none" stroke="#ff703b" stroke-width="7"/>
      </g>
      <g transform="translate(471.475 422.589)">
        <line id="線_3-116" data-name="線 3" x2="100" transform="translate(0 45.114) rotate(-45)" fill="none" stroke="#ff703b" stroke-width="7"/>
      </g>
      <g transform="translate(538.475 422.589)">
        <line id="線_3-117" data-name="線 3" x2="100" transform="translate(0 45.114) rotate(-45)" fill="none" stroke="#ff703b" stroke-width="7"/>
      </g>
      <g transform="translate(605.475 422.589)">
        <line id="線_3-118" data-name="線 3" x2="100" transform="translate(0 45.114) rotate(-45)" fill="none" stroke="#ff703b" stroke-width="7"/>
      </g>
      <g transform="translate(672.475 422.589)">
        <line id="線_3-119" data-name="線 3" x2="100" transform="translate(0 45.114) rotate(-45)" fill="none" stroke="#ff703b" stroke-width="7"/>
      </g>
      <g transform="translate(739.475 422.589)">
        <line id="線_3-120" data-name="線 3" x2="100" transform="translate(0 45.114) rotate(-45)" fill="none" stroke="#ff703b" stroke-width="7"/>
      </g>
      <g transform="translate(806.475 422.589)">
        <line id="線_3-121" data-name="線 3" x2="100" transform="translate(0 45.114) rotate(-45)" fill="none" stroke="#ff703b" stroke-width="7"/>
      </g>
      <g transform="translate(873.475 422.589)">
        <line id="線_3-122" data-name="線 3" x2="100" transform="translate(0 45.114) rotate(-45)" fill="none" stroke="#ff703b" stroke-width="7"/>
      </g>
      <g transform="translate(940.475 422.589)">
        <line id="線_3-123" data-name="線 3" x2="100" transform="translate(0 45.114) rotate(-45)" fill="none" stroke="#ff703b" stroke-width="7"/>
      </g>
      <g transform="translate(1007.475 422.589)">
        <line id="線_3-124" data-name="線 3" x2="100" transform="translate(0 45.114) rotate(-45)" fill="none" stroke="#ff703b" stroke-width="7"/>
      </g>
      <g transform="translate(1074.475 422.589)">
        <line id="線_3-125" data-name="線 3" x2="100" transform="translate(0 45.114) rotate(-45)" fill="none" stroke="#ff703b" stroke-width="7"/>
      </g>
      <g transform="translate(1141.475 422.589)">
        <line id="線_3-126" data-name="線 3" x2="100" transform="translate(0 45.114) rotate(-45)" fill="none" stroke="#ff703b" stroke-width="7"/>
      </g>
      <g transform="translate(2.475 489.589)">
        <line id="線_3-127" data-name="線 3" x2="100" transform="translate(0 45.114) rotate(-45)" fill="none" stroke="#ff703b" stroke-width="7"/>
      </g>
      <g transform="translate(69.475 489.589)">
        <line id="線_3-128" data-name="線 3" x2="100" transform="translate(0 45.114) rotate(-45)" fill="none" stroke="#ff703b" stroke-width="7"/>
      </g>
      <g transform="translate(136.475 489.589)">
        <line id="線_3-129" data-name="線 3" x2="100" transform="translate(0 45.114) rotate(-45)" fill="none" stroke="#ff703b" stroke-width="7"/>
      </g>
      <g transform="translate(203.475 489.589)">
        <line id="線_3-130" data-name="線 3" x2="100" transform="translate(0 45.114) rotate(-45)" fill="none" stroke="#ff703b" stroke-width="7"/>
      </g>
      <g transform="translate(270.475 489.589)">
        <line id="線_3-131" data-name="線 3" x2="100" transform="translate(0 45.114) rotate(-45)" fill="none" stroke="#ff703b" stroke-width="7"/>
      </g>
      <g transform="translate(337.475 489.589)">
        <line id="線_3-132" data-name="線 3" x2="100" transform="translate(0 45.114) rotate(-45)" fill="none" stroke="#ff703b" stroke-width="7"/>
      </g>
      <g transform="translate(404.475 489.589)">
        <line id="線_3-133" data-name="線 3" x2="100" transform="translate(0 45.114) rotate(-45)" fill="none" stroke="#ff703b" stroke-width="7"/>
      </g>
      <g transform="translate(471.475 489.589)">
        <line id="線_3-134" data-name="線 3" x2="100" transform="translate(0 45.114) rotate(-45)" fill="none" stroke="#ff703b" stroke-width="7"/>
      </g>
      <g transform="translate(538.475 489.589)">
        <line id="線_3-135" data-name="線 3" x2="100" transform="translate(0 45.114) rotate(-45)" fill="none" stroke="#ff703b" stroke-width="7"/>
      </g>
      <g transform="translate(605.475 489.589)">
        <line id="線_3-136" data-name="線 3" x2="100" transform="translate(0 45.114) rotate(-45)" fill="none" stroke="#ff703b" stroke-width="7"/>
      </g>
      <g transform="translate(672.475 489.589)">
        <line id="線_3-137" data-name="線 3" x2="100" transform="translate(0 45.114) rotate(-45)" fill="none" stroke="#ff703b" stroke-width="7"/>
      </g>
      <g transform="translate(739.475 489.589)">
        <line id="線_3-138" data-name="線 3" x2="100" transform="translate(0 45.114) rotate(-45)" fill="none" stroke="#ff703b" stroke-width="7"/>
      </g>
      <g transform="translate(806.475 489.589)">
        <line id="線_3-139" data-name="線 3" x2="100" transform="translate(0 45.114) rotate(-45)" fill="none" stroke="#ff703b" stroke-width="7"/>
      </g>
      <g transform="translate(873.475 489.589)">
        <line id="線_3-140" data-name="線 3" x2="100" transform="translate(0 45.114) rotate(-45)" fill="none" stroke="#ff703b" stroke-width="7"/>
      </g>
      <g transform="translate(940.475 489.589)">
        <line id="線_3-141" data-name="線 3" x2="100" transform="translate(0 45.114) rotate(-45)" fill="none" stroke="#ff703b" stroke-width="7"/>
      </g>
      <g transform="translate(1007.475 489.589)">
        <line id="線_3-142" data-name="線 3" x2="100" transform="translate(0 45.114) rotate(-45)" fill="none" stroke="#ff703b" stroke-width="7"/>
      </g>
      <g transform="translate(1074.475 489.589)">
        <line id="線_3-143" data-name="線 3" x2="100" transform="translate(0 45.114) rotate(-45)" fill="none" stroke="#ff703b" stroke-width="7"/>
      </g>
      <g transform="translate(1141.475 489.589)">
        <line id="線_3-144" data-name="線 3" x2="100" transform="translate(0 45.114) rotate(-45)" fill="none" stroke="#ff703b" stroke-width="7"/>
      </g>
      <g transform="translate(2.475 556.589)">
        <line id="線_3-145" data-name="線 3" x2="100" transform="translate(0 45.114) rotate(-45)" fill="none" stroke="#ff703b" stroke-width="7"/>
      </g>
      <g transform="translate(69.475 556.589)">
        <line id="線_3-146" data-name="線 3" x2="100" transform="translate(0 45.114) rotate(-45)" fill="none" stroke="#ff703b" stroke-width="7"/>
      </g>
      <g transform="translate(136.475 556.589)">
        <line id="線_3-147" data-name="線 3" x2="100" transform="translate(0 45.114) rotate(-45)" fill="none" stroke="#ff703b" stroke-width="7"/>
      </g>
      <g transform="translate(203.475 556.589)">
        <line id="線_3-148" data-name="線 3" x2="100" transform="translate(0 45.114) rotate(-45)" fill="none" stroke="#ff703b" stroke-width="7"/>
      </g>
      <g transform="translate(270.475 556.589)">
        <line id="線_3-149" data-name="線 3" x2="100" transform="translate(0 45.114) rotate(-45)" fill="none" stroke="#ff703b" stroke-width="7"/>
      </g>
      <g transform="translate(337.475 556.589)">
        <line id="線_3-150" data-name="線 3" x2="100" transform="translate(0 45.114) rotate(-45)" fill="none" stroke="#ff703b" stroke-width="7"/>
      </g>
      <g transform="translate(404.475 556.589)">
        <line id="線_3-151" data-name="線 3" x2="100" transform="translate(0 45.114) rotate(-45)" fill="none" stroke="#ff703b" stroke-width="7"/>
      </g>
      <g transform="translate(471.475 556.589)">
        <line id="線_3-152" data-name="線 3" x2="100" transform="translate(0 45.114) rotate(-45)" fill="none" stroke="#ff703b" stroke-width="7"/>
      </g>
      <g transform="translate(538.475 556.589)">
        <line id="線_3-153" data-name="線 3" x2="100" transform="translate(0 45.114) rotate(-45)" fill="none" stroke="#ff703b" stroke-width="7"/>
      </g>
      <g transform="translate(605.475 556.589)">
        <line id="線_3-154" data-name="線 3" x2="100" transform="translate(0 45.114) rotate(-45)" fill="none" stroke="#ff703b" stroke-width="7"/>
      </g>
      <g transform="translate(672.475 556.589)">
        <line id="線_3-155" data-name="線 3" x2="100" transform="translate(0 45.114) rotate(-45)" fill="none" stroke="#ff703b" stroke-width="7"/>
      </g>
      <g transform="translate(739.475 556.589)">
        <line id="線_3-156" data-name="線 3" x2="100" transform="translate(0 45.114) rotate(-45)" fill="none" stroke="#ff703b" stroke-width="7"/>
      </g>
      <g transform="translate(806.475 556.589)">
        <line id="線_3-157" data-name="線 3" x2="100" transform="translate(0 45.114) rotate(-45)" fill="none" stroke="#ff703b" stroke-width="7"/>
      </g>
      <g transform="translate(873.475 556.589)">
        <line id="線_3-158" data-name="線 3" x2="100" transform="translate(0 45.114) rotate(-45)" fill="none" stroke="#ff703b" stroke-width="7"/>
      </g>
      <g transform="translate(940.475 556.589)">
        <line id="線_3-159" data-name="線 3" x2="100" transform="translate(0 45.114) rotate(-45)" fill="none" stroke="#ff703b" stroke-width="7"/>
      </g>
      <g transform="translate(1007.475 556.589)">
        <line id="線_3-160" data-name="線 3" x2="100" transform="translate(0 45.114) rotate(-45)" fill="none" stroke="#ff703b" stroke-width="7"/>
      </g>
      <g transform="translate(1074.475 556.589)">
        <line id="線_3-161" data-name="線 3" x2="100" transform="translate(0 45.114) rotate(-45)" fill="none" stroke="#ff703b" stroke-width="7"/>
      </g>
      <g transform="translate(1141.475 556.589)">
        <line id="線_3-162" data-name="線 3" x2="100" transform="translate(0 45.114) rotate(-45)" fill="none" stroke="#ff703b" stroke-width="7"/>
      </g>
      <g transform="translate(2.475 623.589)">
        <line id="線_3-163" data-name="線 3" x2="100" transform="translate(0 45.114) rotate(-45)" fill="none" stroke="#ff703b" stroke-width="7"/>
      </g>
      <g transform="translate(69.475 623.589)">
        <line id="線_3-164" data-name="線 3" x2="100" transform="translate(0 45.114) rotate(-45)" fill="none" stroke="#ff703b" stroke-width="7"/>
      </g>
      <g transform="translate(136.475 623.589)">
        <line id="線_3-165" data-name="線 3" x2="100" transform="translate(0 45.114) rotate(-45)" fill="none" stroke="#ff703b" stroke-width="7"/>
      </g>
      <g transform="translate(203.475 623.589)">
        <line id="線_3-166" data-name="線 3" x2="100" transform="translate(0 45.114) rotate(-45)" fill="none" stroke="#ff703b" stroke-width="7"/>
      </g>
      <g transform="translate(270.475 623.589)">
        <line id="線_3-167" data-name="線 3" x2="100" transform="translate(0 45.114) rotate(-45)" fill="none" stroke="#ff703b" stroke-width="7"/>
      </g>
      <g transform="translate(337.475 623.589)">
        <line id="線_3-168" data-name="線 3" x2="100" transform="translate(0 45.114) rotate(-45)" fill="none" stroke="#ff703b" stroke-width="7"/>
      </g>
      <g transform="translate(404.475 623.589)">
        <line id="線_3-169" data-name="線 3" x2="100" transform="translate(0 45.114) rotate(-45)" fill="none" stroke="#ff703b" stroke-width="7"/>
      </g>
      <g transform="translate(471.475 623.589)">
        <line id="線_3-170" data-name="線 3" x2="100" transform="translate(0 45.114) rotate(-45)" fill="none" stroke="#ff703b" stroke-width="7"/>
      </g>
      <g transform="translate(538.475 623.589)">
        <line id="線_3-171" data-name="線 3" x2="100" transform="translate(0 45.114) rotate(-45)" fill="none" stroke="#ff703b" stroke-width="7"/>
      </g>
      <g transform="translate(605.475 623.589)">
        <line id="線_3-172" data-name="線 3" x2="100" transform="translate(0 45.114) rotate(-45)" fill="none" stroke="#ff703b" stroke-width="7"/>
      </g>
      <g transform="translate(672.475 623.589)">
        <line id="線_3-173" data-name="線 3" x2="100" transform="translate(0 45.114) rotate(-45)" fill="none" stroke="#ff703b" stroke-width="7"/>
      </g>
      <g transform="translate(739.475 623.589)">
        <line id="線_3-174" data-name="線 3" x2="100" transform="translate(0 45.114) rotate(-45)" fill="none" stroke="#ff703b" stroke-width="7"/>
      </g>
      <g transform="translate(806.475 623.589)">
        <line id="線_3-175" data-name="線 3" x2="100" transform="translate(0 45.114) rotate(-45)" fill="none" stroke="#ff703b" stroke-width="7"/>
      </g>
      <g transform="translate(873.475 623.589)">
        <line id="線_3-176" data-name="線 3" x2="100" transform="translate(0 45.114) rotate(-45)" fill="none" stroke="#ff703b" stroke-width="7"/>
      </g>
      <g transform="translate(940.475 623.589)">
        <line id="線_3-177" data-name="線 3" x2="100" transform="translate(0 45.114) rotate(-45)" fill="none" stroke="#ff703b" stroke-width="7"/>
      </g>
      <g transform="translate(1007.475 623.589)">
        <line id="線_3-178" data-name="線 3" x2="100" transform="translate(0 45.114) rotate(-45)" fill="none" stroke="#ff703b" stroke-width="7"/>
      </g>
      <g transform="translate(1074.475 623.589)">
        <line id="線_3-179" data-name="線 3" x2="100" transform="translate(0 45.114) rotate(-45)" fill="none" stroke="#ff703b" stroke-width="7"/>
      </g>
      <g transform="translate(1141.475 623.589)">
        <line id="線_3-180" data-name="線 3" x2="100" transform="translate(0 45.114) rotate(-45)" fill="none" stroke="#ff703b" stroke-width="7"/>
      </g>
      <g transform="translate(2.475 690.589)">
        <line id="線_3-181" data-name="線 3" x2="100" transform="translate(0 45.114) rotate(-45)" fill="none" stroke="#ff703b" stroke-width="7"/>
      </g>
      <g transform="translate(69.475 690.589)">
        <line id="線_3-182" data-name="線 3" x2="100" transform="translate(0 45.114) rotate(-45)" fill="none" stroke="#ff703b" stroke-width="7"/>
      </g>
      <g transform="translate(136.475 690.589)">
        <line id="線_3-183" data-name="線 3" x2="100" transform="translate(0 45.114) rotate(-45)" fill="none" stroke="#ff703b" stroke-width="7"/>
      </g>
      <g transform="translate(203.475 690.589)">
        <line id="線_3-184" data-name="線 3" x2="100" transform="translate(0 45.114) rotate(-45)" fill="none" stroke="#ff703b" stroke-width="7"/>
      </g>
      <g transform="translate(270.475 690.589)">
        <line id="線_3-185" data-name="線 3" x2="100" transform="translate(0 45.114) rotate(-45)" fill="none" stroke="#ff703b" stroke-width="7"/>
      </g>
      <g transform="translate(337.475 690.589)">
        <line id="線_3-186" data-name="線 3" x2="100" transform="translate(0 45.114) rotate(-45)" fill="none" stroke="#ff703b" stroke-width="7"/>
      </g>
      <g transform="translate(404.475 690.589)">
        <line id="線_3-187" data-name="線 3" x2="100" transform="translate(0 45.114) rotate(-45)" fill="none" stroke="#ff703b" stroke-width="7"/>
      </g>
      <g transform="translate(471.475 690.589)">
        <line id="線_3-188" data-name="線 3" x2="100" transform="translate(0 45.114) rotate(-45)" fill="none" stroke="#ff703b" stroke-width="7"/>
      </g>
      <g transform="translate(538.475 690.589)">
        <line id="線_3-189" data-name="線 3" x2="100" transform="translate(0 45.114) rotate(-45)" fill="none" stroke="#ff703b" stroke-width="7"/>
      </g>
      <g transform="translate(605.475 690.589)">
        <line id="線_3-190" data-name="線 3" x2="100" transform="translate(0 45.114) rotate(-45)" fill="none" stroke="#ff703b" stroke-width="7"/>
      </g>
      <g transform="translate(672.475 690.589)">
        <line id="線_3-191" data-name="線 3" x2="100" transform="translate(0 45.114) rotate(-45)" fill="none" stroke="#ff703b" stroke-width="7"/>
      </g>
      <g transform="translate(739.475 690.589)">
        <line id="線_3-192" data-name="線 3" x2="100" transform="translate(0 45.114) rotate(-45)" fill="none" stroke="#ff703b" stroke-width="7"/>
      </g>
      <g transform="translate(806.475 690.589)">
        <line id="線_3-193" data-name="線 3" x2="100" transform="translate(0 45.114) rotate(-45)" fill="none" stroke="#ff703b" stroke-width="7"/>
      </g>
      <g transform="translate(873.475 690.589)">
        <line id="線_3-194" data-name="線 3" x2="100" transform="translate(0 45.114) rotate(-45)" fill="none" stroke="#ff703b" stroke-width="7"/>
      </g>
      <g transform="translate(940.475 690.589)">
        <line id="線_3-195" data-name="線 3" x2="100" transform="translate(0 45.114) rotate(-45)" fill="none" stroke="#ff703b" stroke-width="7"/>
      </g>
      <g transform="translate(1007.475 690.589)">
        <line id="線_3-196" data-name="線 3" x2="100" transform="translate(0 45.114) rotate(-45)" fill="none" stroke="#ff703b" stroke-width="7"/>
      </g>
      <g transform="translate(1074.475 690.589)">
        <line id="線_3-197" data-name="線 3" x2="100" transform="translate(0 45.114) rotate(-45)" fill="none" stroke="#ff703b" stroke-width="7"/>
      </g>
      <g transform="translate(1141.475 690.589)">
        <line id="線_3-198" data-name="線 3" x2="100" transform="translate(0 45.114) rotate(-45)" fill="none" stroke="#ff703b" stroke-width="7"/>
      </g>
    </g>
    <g id="長方形_52" data-name="長方形 52" transform="translate(42 43)" fill="#fff3a6" stroke="rgba(255,255,255,0.56)" stroke-width="5" opacity="0.078" style="mix-blend-mode: screen;isolation: isolate">
      <rect width="1116" height="589" stroke="none"/>
      <rect x="2.5" y="2.5" width="1111" height="584" fill="none"/>
    </g>
    <path id="パス_41" data-name="パス 41" d="M0,1.422s49.151-21.666,85.029,0,31.184,79.516,58.484,86.664S209.2,89.5,227.23,112.938s73.9-2.93,97.844,46.969c13.412,27.943-13.815,55.655-24.736,82.758-8.435,20.934,24.736,45.016,24.736,45.016H0Z" transform="translate(1200 287.681) rotate(180)" fill="#fff3a6"/>
    <path id="パス_42" data-name="パス 42" d="M1269,2115.438" transform="translate(-1269 -1648)" fill="none" stroke="#707070" stroke-width="1"/>
    <path id="パス_43" data-name="パス 43" d="M0,1.422s49.151-21.666,85.029,0,31.184,79.516,58.484,86.664S209.2,89.5,227.23,112.938s73.9-2.93,97.844,46.969c13.412,27.943-13.815,55.655-24.736,82.758-8.435,20.934,24.736,45.016,24.736,45.016H0Z" transform="translate(0 387.319)" fill="#fff3a6"/>
    <g id="グループ_74" data-name="グループ 74" transform="translate(736 21.341)">
      <g id="base" transform="translate(274 541)">
        <path id="body" d="M85,9.549c-18.1,0-33.453-7.5-44.919,0-12.335,8.069-18.07,21.445-23.427,36.477-1.164,3.264-7.791,6.714-8.97,10.647C7.01,58.925,9,63,8.242,65.7,6.6,71.538,2.034,71.5.946,77.562-.486,85.55,8.373,92.514,7.781,99.652,7.008,108.952,0,120.8,0,124.625c0,19.017,38.056,30.249,85,30.249s85-11.246,85-30.249c0-3.636-6.96-14.908-7.668-24.491-.522-7.08,8.18-13.192,6.471-22.573-.846-4.646-4.646-6.659-6.021-11.864-.582-2.205,1.579-5.794.833-8.386-1.056-3.673-7.736-7.35-9.181-11.377-5.076-14.158-11.285-27.783-24.517-36.387-10.945-7.118-26.9,0-44.919,0Z" transform="translate(0 -6.215)" fill="#f0a836"/>
        <path id="onaka" d="M81.771,42.815c-22.541-.523-37.212,13.875-56.1,13.734-6.016,1.266-6.924,18.036-4.022,28.849C18.987,98.824,9.135,115.2,8.877,119.181,4.212,134.79,35.1,143.012,81.771,143.012s78.366-8.324,74.985-23.831C155.7,114.2,145.884,99.388,143.1,85.4c1.8-8.409.363-27.777-4.927-28.849C119.827,56.849,106.185,41.868,81.771,42.815Z" transform="translate(2.293 5.647)" fill="#fff"/>
      </g>
      <path id="パス_44" data-name="パス 44" d="M-761.338-3653.855c-13,.352-54.4,15.235-54.4,15.235l13.157,4.974s20.22,8.531,41.239,8.531,42.836-8.531,42.836-8.531l9.5-4.974S-748.337-3654.207-761.338-3653.855Z" transform="translate(1120.441 4242.404)" fill="#e08079"/>
      <path id="パス_45" data-name="パス 45" d="M365.965,214.616s8.548,8.663,16.5,6.031C396.125,216.122,418,206.4,427.827,206.4c9.613,0,30.206,9.437,44.307,14.22,7.381,2.5,16.6-6.005,16.6-6.005" transform="translate(-69.041 382.148)" fill="none" stroke="#b17b5e" stroke-linecap="round" stroke-width="4"/>
      <circle id="楕円形_38" data-name="楕円形 38" cx="10.61" cy="10.61" r="10.61" transform="translate(390.072 558.122)" fill="#6f5638"/>
      <ellipse id="楕円形_39" data-name="楕円形 39" cx="5.557" cy="7.641" rx="5.557" ry="7.641" transform="translate(422.27 595.149) rotate(-7)" fill="#6f5638" opacity="0.41"/>
      <ellipse id="楕円形_40" data-name="楕円形 40" cx="5.557" cy="7.641" rx="5.557" ry="7.641" transform="translate(284.698 593.795) rotate(7)" fill="#6f5638" opacity="0.41"/>
      <path id="パス_46" data-name="パス 46" d="M105.441-5.317S91.965-1.356,79.983-1.356C69.063-1.356,59.8,1.36,47.735,1.36c-12.313,0-21.9-2.716-33.311-2.716C3.9-1.356-8.521-5.317-8.521-5.317S23.255,7.469,47.735,7.469,105.441-5.317,105.441-5.317Z" transform="translate(310.54 636.878)" fill="#f2f2f2" stroke="#f2f2f2" stroke-linecap="round" stroke-linejoin="round" stroke-width="5" opacity="0.401"/>
      <path id="パス_47" data-name="パス 47" d="M27.806,0c.856.05,2.156,1.951,6.337,3.715,8.2,3.456,22.7,5.272,22.652,7.4-.074,3.059-7.173,7.856-14.809,7.856a40.562,40.562,0,0,1-14.181-2.782,45.186,45.186,0,0,1-14.677,2.782c-7.643,0-13.352-5.956-13.123-7.856C.147,9.95,10.371,8.757,19.233,4.7,24.265,2.391,26.718-.063,27.806,0Z" transform="translate(386.176 617.289) rotate(180)" fill="#f5b1ab"/>
      <circle id="楕円形_125" data-name="楕円形 125" cx="10.61" cy="10.61" r="10.61" transform="translate(308.16 558.122)" fill="#6f5638"/>
    </g>
    <path id="パス_390" data-name="パス 390" d="M21.015,35.363c9.941,0,15.013-18.769,16.38-22.285s3.434-7.826,1.454-9.5c-.706-.6-7.86,7.846-9.243,7.187C28.2,10.092,28.835.482,26.614.017,24.858-.354,21.8,9.492,19.4,9.492c-1.907,0-6.636-9.959-8.349-9.475-1.5.418-2.2,9.921-4.1,10.748-1.09.473-4.234-7.914-5.548-7.187-2.262,1.246-1.412,5.862,0,9.5S11.074,35.363,21.015,35.363Z" transform="translate(957.663 652.71) rotate(-9)" fill="#f0a837"/>
  </g>
</svg>
