<svg xmlns="http://www.w3.org/2000/svg" xmlns:xlink="http://www.w3.org/1999/xlink" width="1200" height="675" viewBox="0 0 1200 675">
  <defs>
    <clipPath id="clip-path">
      <path id="パス_379" data-name="パス 379" d="M416.894,271.178c7.361,0,35.26,14.875,47.28,19.832,4.86,2,10.433-33.294,14.514-31.807,6.13,2.233-2.973-33.835-2.928-33.857,1.376-.662-4.875-6.967-4.213-5.591a2.764,2.764,0,0,1-1.292,3.689,20.533,20.533,0,0,1-15.106.09c-4.19-1.526-8.832-3.441-13.747-5.468-10.986-4.531-23.437-9.666-29.7-9.666C405.236,208.4,409.357,271.178,416.894,271.178Z" transform="translate(-408.495 -208.401)" fill="#b18b5e"/>
    </clipPath>
    <clipPath id="clip-bg03">
      <rect width="1200" height="675"/>
    </clipPath>
  </defs>
  <g id="bg03" clip-path="url(#clip-bg03)">
    <rect width="1200" height="675" fill="#fff"/>
    <rect id="長方形_46" data-name="長方形 46" width="1200" height="36" fill="#f1f5f8" opacity="0.726" style="mix-blend-mode: multiply;isolation: isolate"/>
    <rect id="長方形_53" data-name="長方形 53" width="1200" height="36" transform="translate(0 639)" fill="#f1f5f8" opacity="0.726" style="mix-blend-mode: multiply;isolation: isolate"/>
    <path id="パス_41" data-name="パス 41" d="M0-1.467s34.406-15.166,59.521,0S81.35,54.195,100.461,59.2s45.981.992,58.6,17.4,51.727-2.051,68.492,32.879c9.388,19.561-9.671,38.959-17.315,57.931-5.9,14.654,17.315,31.511,17.315,31.511H0Z" transform="translate(1200 198.917) rotate(180)" fill="#368ee6"/>
    <path id="パス_42" data-name="パス 42" d="M1269,2115.438" transform="translate(-1269 -1648)" fill="none" stroke="#707070" stroke-width="1"/>
    <path id="パス_43" data-name="パス 43" d="M0-1.453s34.479-15.2,59.647,0S81.522,54.327,100.673,59.34s46.078.994,58.725,17.434,51.836-2.055,68.636,32.948c9.408,19.6-9.691,39.041-17.352,58.054-5.917,14.685,17.352,31.578,17.352,31.578H0Z" transform="translate(0 475.646)" fill="#5abc7c"/>
    <g id="グループ_112" data-name="グループ 112" transform="translate(1010 561.114)">
      <g id="base" transform="translate(0 2)">
        <path id="body" d="M85,9.532c-18.1,0-33.453-7.462-44.919,0C27.746,17.559,22.011,30.866,16.655,45.82c-1.164,3.248-7.791,6.679-8.97,10.592-.675,2.24,1.315,6.3.557,8.978C6.6,71.2,2.034,71.156.946,77.191-.486,85.137,8.373,92.066,7.781,99.166,7.008,108.418,0,120.209,0,124.01,0,142.928,38.056,154.1,85,154.1s85-11.188,85-30.092c0-3.617-6.96-14.831-7.668-24.363-.522-7.043,8.18-13.124,6.471-22.455-.846-4.622-4.646-6.624-6.021-11.8-.582-2.194,1.579-5.764.833-8.342-1.056-3.653-7.736-7.311-9.181-11.318-5.076-14.085-11.285-27.639-24.517-36.2-10.945-7.081-26.9,0-44.919,0Z" transform="translate(0 -6.215)" fill="#f0a836"/>
        <path id="onaka" d="M81.826,42.812c-22.558-.521-37.237,17.254-56.141,17.113-6.021,1.26-6.931,14.491-4.027,25.248C19,98.531,9.135,114.826,8.877,118.782c-4.668,15.528,26.245,23.707,72.949,23.707s78.425-8.28,75.041-23.707c-1.058-4.953-10.88-19.69-13.662-33.608,1.8-8.365,2.176-24.181-3.117-25.248C121.724,60.225,106.259,41.87,81.826,42.812Z" transform="translate(2.237 5.397)" fill="#fff"/>
      </g>
      <circle id="楕円形_113" data-name="楕円形 113" cx="10.366" cy="10.366" r="10.366" transform="translate(116.098 19.968)" fill="#6f5638"/>
      <ellipse id="楕円形_115" data-name="楕円形 115" cx="5.528" cy="7.602" rx="5.528" ry="7.602" transform="translate(148.383 55.868) rotate(-7)" fill="#6f5638" opacity="0.41"/>
      <ellipse id="楕円形_116" data-name="楕円形 116" cx="5.528" cy="7.602" rx="5.528" ry="7.602" transform="translate(10.643 54.52) rotate(7)" fill="#6f5638" opacity="0.41"/>
      <circle id="楕円形_114" data-name="楕円形 114" cx="10.366" cy="10.366" r="10.366" transform="translate(34.553 19.968)" fill="#6f5638"/>
      <path id="パス_377" data-name="パス 377" d="M105.732-3.307H80.57c-10.947,0-20.592-3.652-32.691-3.652-12.345,0-22.02,3.652-33.464,3.652H-8.521S23.336,8.03,47.879,8.03,105.732-3.307,105.732-3.307Z" transform="translate(36.395 92.634)" fill="#f2f2f2" stroke="#f2f2f2" stroke-linecap="round" stroke-linejoin="round" stroke-width="5" opacity="0.401"/>
      <g id="マスクグループ_16" data-name="マスクグループ 16" transform="translate(81.796 50.574)" clip-path="url(#clip-path)">
        <g id="グループ_111" data-name="グループ 111" transform="translate(-4.733 -0.968) rotate(-20)">
          <g id="グループ_111-2" data-name="グループ 111">
            <path id="合体_27" data-name="合体 27" d="M16.409,59.351a9.979,9.979,0,0,1-3.9-.074C7.27,58.146,3.726,53.189,4.6,48.2a8.488,8.488,0,0,1,1.346-3.329,12.779,12.779,0,0,1-1.809-1.455c-4.609-4.442-5.5-11.668-2-16.138a8.722,8.722,0,0,1,7.189-3.366C10.729,10.365,18.449,0,27.761,0c9.633,0,17.562,11.091,18.554,25.329A8.649,8.649,0,0,1,50.8,28.358c3.505,4.471,2.611,11.7-2,16.137a12.784,12.784,0,0,1-1.809,1.455,8.491,8.491,0,0,1,1.346,3.329c.874,4.986-2.669,9.943-7.915,11.072a9.85,9.85,0,0,1-4.989-.193C34.484,65.711,30.612,73.1,25.981,73.1,21.12,73.1,17.1,64.962,16.409,59.351Z" transform="translate(0)" fill="#53be80"/>
            <path id="パス_384" data-name="パス 384" d="M1.968,0C2.731,0,3.35,14.785,3.35,33.022s3.34,37.186-.816,37.172S.586,51.26.586,33.022,1.2,0,1.968,0Z" transform="translate(26.19 16.511) rotate(3)" fill="#98edbc"/>
            <ellipse id="楕円形_119" data-name="楕円形 119" cx="1.382" cy="5.652" rx="1.382" ry="5.652" transform="translate(40.256 25.31) rotate(59)" fill="#98edbc"/>
            <ellipse id="楕円形_120" data-name="楕円形 120" cx="1.382" cy="5.652" rx="1.382" ry="5.652" transform="translate(39.581 34.961) rotate(59)" fill="#98edbc"/>
            <ellipse id="楕円形_121" data-name="楕円形 121" cx="1.382" cy="5.652" rx="1.382" ry="5.652" transform="matrix(-0.574, 0.819, -0.819, -0.574, 24.113, 31.491)" fill="#98edbc"/>
            <ellipse id="楕円形_122" data-name="楕円形 122" cx="1.382" cy="5.652" rx="1.382" ry="5.652" transform="matrix(-0.574, 0.819, -0.819, -0.574, 24.113, 41.166)" fill="#98edbc"/>
            <ellipse id="楕円形_123" data-name="楕円形 123" cx="1.382" cy="4.269" rx="1.382" ry="4.269" transform="matrix(-0.574, 0.819, -0.819, -0.574, 24.113, 50.841)" fill="#98edbc"/>
            <ellipse id="楕円形_124" data-name="楕円形 124" cx="1.382" cy="4.269" rx="1.382" ry="4.269" transform="translate(36.537 46.036) rotate(59)" fill="#98edbc"/>
          </g>
        </g>
      </g>
      <path id="パス_376" data-name="パス 376" d="M368.313,221.717s5.313,2.847,13.286.012c13.69-4.869,35.611-15.328,45.455-15.328,9.632,0,30.267,10.154,44.4,15.3a17.756,17.756,0,0,0,12.961.016" transform="translate(-341.361 -157.209)" fill="none" stroke="#b18b5e" stroke-linecap="round" stroke-width="4"/>
    </g>
  </g>
</svg>
