<svg xmlns="http://www.w3.org/2000/svg" xmlns:xlink="http://www.w3.org/1999/xlink" width="1200" height="675" viewBox="0 0 1200 675">
  <defs>
    <clipPath id="clip-bg04">
      <rect width="1200" height="675"/>
    </clipPath>
  </defs>
  <g id="bg04" clip-path="url(#clip-bg04)">
    <rect width="1200" height="675" fill="#fff"/>
    <rect id="長方形_46" data-name="長方形 46" width="1200" height="675" fill="#f4f8fa"/>
    <path id="パス_42" data-name="パス 42" d="M1269,2115.438" transform="translate(-1269 -1648)" fill="none" stroke="#707070" stroke-width="1"/>
    <g id="長方形_52" data-name="長方形 52" transform="translate(42 43)" fill="#fff3a6" stroke="rgba(255,255,255,0.56)" stroke-width="5" opacity="0.723" style="mix-blend-mode: screen;isolation: isolate">
      <rect width="1116" height="589" stroke="none"/>
      <rect x="2.5" y="2.5" width="1111" height="584" fill="none"/>
    </g>
    <g id="グループ_113" data-name="グループ 113" transform="translate(83.425 522.316) rotate(30)">
      <g id="グループ_111" data-name="グループ 111">
        <path id="合体_27" data-name="合体 27" d="M16.409,59.351a9.979,9.979,0,0,1-3.9-.074C7.27,58.146,3.726,53.189,4.6,48.2a8.488,8.488,0,0,1,1.346-3.329,12.779,12.779,0,0,1-1.809-1.455c-4.609-4.442-5.5-11.668-2-16.138a8.722,8.722,0,0,1,7.189-3.366C10.729,10.365,18.449,0,27.761,0c9.633,0,17.562,11.091,18.554,25.329A8.649,8.649,0,0,1,50.8,28.358c3.505,4.471,2.611,11.7-2,16.137a12.784,12.784,0,0,1-1.809,1.455,8.491,8.491,0,0,1,1.346,3.329c.874,4.986-2.669,9.943-7.915,11.072a9.85,9.85,0,0,1-4.989-.193C34.484,65.711,30.612,73.1,25.981,73.1,21.12,73.1,17.1,64.962,16.409,59.351Z" transform="translate(0)" fill="#47b174"/>
        <path id="パス_384" data-name="パス 384" d="M1.968,0C2.731,0,3.35,14.785,3.35,33.022s3.34,37.186-.816,37.172S.586,51.26.586,33.022,1.2,0,1.968,0Z" transform="translate(26.19 16.511) rotate(3)" fill="#98edbc"/>
        <ellipse id="楕円形_119" data-name="楕円形 119" cx="1.382" cy="5.652" rx="1.382" ry="5.652" transform="translate(40.256 25.31) rotate(59)" fill="#98edbc"/>
        <ellipse id="楕円形_120" data-name="楕円形 120" cx="1.382" cy="5.652" rx="1.382" ry="5.652" transform="translate(39.581 34.961) rotate(59)" fill="#98edbc"/>
        <ellipse id="楕円形_121" data-name="楕円形 121" cx="1.382" cy="5.652" rx="1.382" ry="5.652" transform="matrix(-0.574, 0.819, -0.819, -0.574, 24.113, 31.491)" fill="#98edbc"/>
        <ellipse id="楕円形_122" data-name="楕円形 122" cx="1.382" cy="5.652" rx="1.382" ry="5.652" transform="matrix(-0.574, 0.819, -0.819, -0.574, 24.113, 41.166)" fill="#98edbc"/>
        <ellipse id="楕円形_123" data-name="楕円形 123" cx="1.382" cy="4.269" rx="1.382" ry="4.269" transform="matrix(-0.574, 0.819, -0.819, -0.574, 24.113, 50.841)" fill="#98edbc"/>
        <ellipse id="楕円形_124" data-name="楕円形 124" cx="1.382" cy="4.269" rx="1.382" ry="4.269" transform="translate(36.537 46.036) rotate(59)" fill="#98edbc"/>
      </g>
    </g>
    <g id="グループ_114" data-name="グループ 114" transform="translate(4 575.721) rotate(-20)">
      <g id="グループ_111-2" data-name="グループ 111" transform="translate(0)">
        <path id="合体_27-2" data-name="合体 27" d="M18.426,66.645a11.205,11.205,0,0,1-4.374-.083c-5.889-1.27-9.868-6.836-8.886-12.433a9.531,9.531,0,0,1,1.511-3.738,14.349,14.349,0,0,1-2.031-1.634C-.529,43.769-1.533,35.655,2.4,30.635a9.794,9.794,0,0,1,8.072-3.779C12.048,11.639,20.716,0,31.172,0,41.99,0,50.893,12.454,52.006,28.442a9.712,9.712,0,0,1,5.034,3.4c3.936,5.02,2.932,13.132-2.243,18.12A14.355,14.355,0,0,1,52.766,51.6a9.534,9.534,0,0,1,1.512,3.738c.982,5.6-3,11.164-8.888,12.433a11.061,11.061,0,0,1-5.6-.217c-1.066,6.234-5.414,14.536-10.614,14.536C23.715,82.088,19.2,72.946,18.426,66.645Z" transform="translate(0)" fill="#53be70"/>
        <path id="パス_384-2" data-name="パス 384" d="M2.21,0c.857,0,1.552,16.6,1.552,37.081s3.75,41.756-.916,41.741S.658,57.56.658,37.081,1.353,0,2.21,0Z" transform="translate(29.408 18.54) rotate(3)" fill="#98edbc"/>
        <ellipse id="楕円形_119-2" data-name="楕円形 119" cx="1.552" cy="6.346" rx="1.552" ry="6.346" transform="translate(45.203 28.42) rotate(59)" fill="#98edbc"/>
        <ellipse id="楕円形_120-2" data-name="楕円形 120" cx="1.552" cy="6.346" rx="1.552" ry="6.346" transform="translate(44.446 39.257) rotate(59)" fill="#98edbc"/>
        <ellipse id="楕円形_121-2" data-name="楕円形 121" cx="1.552" cy="6.346" rx="1.552" ry="6.346" transform="matrix(-0.574, 0.819, -0.819, -0.574, 27.077, 35.361)" fill="#98edbc"/>
        <ellipse id="楕円形_122-2" data-name="楕円形 122" cx="1.552" cy="6.346" rx="1.552" ry="6.346" transform="matrix(-0.574, 0.819, -0.819, -0.574, 27.077, 46.225)" fill="#98edbc"/>
        <ellipse id="楕円形_123-2" data-name="楕円形 123" cx="1.552" cy="4.794" rx="1.552" ry="4.794" transform="matrix(-0.574, 0.819, -0.819, -0.574, 27.077, 57.089)" fill="#98edbc"/>
        <ellipse id="楕円形_124-2" data-name="楕円形 124" cx="1.552" cy="4.794" rx="1.552" ry="4.794" transform="translate(41.027 51.693) rotate(59)" fill="#98edbc"/>
      </g>
    </g>
    <g id="グループ_115" data-name="グループ 115" transform="matrix(0.848, 0.53, -0.53, 0.848, 70.608, 617.693)">
      <g id="グループ_111-3" data-name="グループ 111" transform="translate(-3.286 -1.484)">
        <path id="合体_27-3" data-name="合体 27" d="M5.858,19.82A3.8,3.8,0,0,1,4.468,19.8a3.335,3.335,0,0,1-2.825-3.7,2.735,2.735,0,0,1,.481-1.112,4.522,4.522,0,0,1-.646-.486A3.961,3.961,0,0,1,.764,9.111,3.2,3.2,0,0,1,3.33,7.987C3.83,3.462,6.586,0,9.911,0c3.439,0,6.27,3.7,6.624,8.459a3.106,3.106,0,0,1,1.6,1.012,3.961,3.961,0,0,1-.713,5.389,4.524,4.524,0,0,1-.646.486,2.736,2.736,0,0,1,.481,1.112,3.334,3.334,0,0,1-2.826,3.7,3.75,3.75,0,0,1-1.781-.064c-.339,1.854-1.721,4.323-3.374,4.323C7.54,24.413,6.1,21.694,5.858,19.82Z" transform="translate(0)" fill="#5fdb5a"/>
        <path id="パス_384-3" data-name="パス 384" d="M.9,0c.343,0,.6,4.55.572,10.165s1.446,11.445-.424,11.446S.2,15.781.232,10.166.561,0,.9,0Z" transform="translate(8.406 7.876) rotate(3)" fill="#98edbc"/>
      </g>
    </g>
  </g>
</svg>
